<?xml version="1.0" standalone="no"?>
<!DOCTYPE svg PUBLIC "-//W3C//DTD SVG 1.1//EN" "http://www.w3.org/Graphics/SVG/1.1/DTD/svg11.dtd" >
<svg xmlns="http://www.w3.org/2000/svg">
<metadata>
<json>
<![CDATA[
{
	"fontFamily": "icomoon",
	"description": "Font generated by IcoMoon.",
	"version": "Version 1.0",
	"majorVersion": 0,
	"fontId": "icomoon",
	"psName": "icomoon",
	"subFamily": "Regular",
	"fullName": "icomoon"
}
]]>
</json>
</metadata>
<defs>
<font id="icomoon" horiz-adv-x="1024">
<font-face units-per-em="1024" ascent="960" descent="-64" />
<missing-glyph horiz-adv-x="1024" />
<glyph unicode="&#x20;" horiz-adv-x="512" d="" />
<glyph unicode="&#xe900;" glyph-name="uniE900" data-tags="uniE900" d="M315.84 605.904l-120.672-512.8 90.496-90.48 87.472 75.424 3.008 33.152 57.328 494.704h-117.632zM708 681.328c0 108.592-87.488 196.064-196.080 196.064s-196.080-87.472-196.080-196.064v-45.248h392.16v45.248zM708 605.904h-117.648l57.312-494.704 6.016-33.152 84.448-75.424 90.512 90.48-120.64 512.8zM560.192 605.904h-96.544l-57.312-500.72-3.024-21.12 108.608-81.44 108.608 81.44-3.008 21.12-57.328 500.72z" />
<glyph unicode="&#xe901;" glyph-name="uniE901" data-tags="uniE901" d="M406.768 643.984c-12.224 1.712-24.256 3.008-36.032 3.936-26.56-55.472-44.464-115.744-52.128-179.344 81.344 0.288 216.752-33.312 259.968-247.68 21.248-106.128 72.064-160.16 157.184-166.096 70.288 40.032 128.656 98.4 168.88 168.56-69.648 216.656-257.6 386.096-497.872 420.624zM277.232 427.36c-62-9.44-105.248-33.968-128.528-72.816-32.976-54.944-19.632-127.088-9.872-162.256 62.912-91.712 158.784-159.088 270.56-185.024-83.776 105.008-132.848 240.128-132.848 391.312-0.032 9.664 0.288 19.184 0.688 28.784zM348.416 687.168c17.12 32.096 36.88 62.56 59.248 91.104-53.344 18.624-69.68 57.68-71.312 86.624-109.152-46.112-196.592-133.84-242.096-243.44 69.424 43.184 148.896 66.032 236.416 66.032 5.84-0.032 11.808-0.192 17.744-0.32zM280.24 465.952c7.088 64.752 24.224 126.496 49.744 183.664-101.6-0.192-186.4-31.968-255.536-86.944-9.664-36.56-14.72-75.024-14.72-114.752 0-57.6 10.752-112.784 30.368-163.568 1.728 29.776 8.976 61.008 25.968 89.568 30.544 50.944 85.824 81.904 164.176 92.032zM434.352 809.92c29.904 33.408 63.472 63.584 99.936 89.76-7.44 0.368-14.912 0.592-22.288 0.592-86.688 0-137.344-23.664-137.344-23.664-0.896-5.36-6.304-51.568 59.696-66.688zM878.928 712.272l-0.784-0.528c-84.688 105.888-221.472 50.784-222.88 50.24-37.184-15.408-105.024-13.264-207.12 6.512-21.808-26.16-41.376-54.336-58.336-84.288 7.376-0.752 14.88-1.632 22.432-2.688 172.432-24.752 324.88-115.312 429.376-254.752 36.336-48.56 65.312-101.008 86.592-155.968 23.216 54.368 36.064 114.336 36.064 177.152-0.096 98.688-31.664 189.968-85.344 264.32zM640.8 796.928c31.568 13.152 85.536 24.304 141.408 13.664-54.912 41.168-119.568 69.872-189.776 82.56-42.064-25.68-80.56-56.528-114.72-91.712 99.712-17.456 143.712-12.544 163.088-4.512zM541.488 213.424c-37.568 186.752-148.816 219.008-226.16 217.472-0.624-10.656-0.912-21.376-0.912-32.192 0-155.632 55.84-296.784 152.848-400.752 14.72-1.376 29.664-2.224 44.816-2.224 58.784 0 115.12 11.248 166.816 31.744-71.28 23.664-117.312 85.824-137.408 185.952z" />
<glyph unicode="&#xe902;" glyph-name="uniE902" data-tags="uniE902" d="M887.632 611.264c0-25.664-20.816-46.496-46.496-46.496h-151.888c-9.136 0-18.080 2.688-25.696 7.744l-97.728 64.816-75.344-100.464h95.904c7.216 0 14.336-1.68 20.8-4.912l177.2-88.592c22.976-11.488 32.288-39.408 20.8-62.384-11.504-22.96-39.424-32.288-62.384-20.8l-167.376 83.696h-97.728l53.152-53.696c11.728-11.856 16.224-29.104 11.728-45.184-4.48-16.096-17.232-28.528-33.424-32.608l-175.872-44.32c-3.808-0.96-7.632-1.408-11.392-1.408-20.8 0-39.744 14.064-45.040 35.152-6.288 24.912 8.832 50.16 33.728 56.432l96.864 24.4-74.256 74.992c-3.84 3.888-6.88 8.352-9.104 13.136-15.632 23.872-15.616 55.888 2.496 80.016l110.096 146.784-54.304 18.096-138.736-46.24c-24.352-8.112-50.688 5.040-58.816 29.408s5.040 50.704 29.392 58.816l153.44 51.152c9.552 3.168 19.856 3.168 29.408 0l153.44-51.152c22.608-8.544 152.768-99.904 152.768-99.904h137.872c25.68 0.016 46.496-20.8 46.496-46.48zM632.656 766.256c42.368 0 76.736 34.352 76.736 76.72s-34.352 76.72-76.736 76.72c-42.352 0-76.72-34.352-76.72-76.72s34.368-76.72 76.72-76.72zM629.424 355.424c-11.296-3.376-18.72-14.224-18.72-26v-250.432c0-15.904-11.872-28.8-27.76-28.8h-95.952c-11.792 0-22.624-7.424-26-18.72-5.12-17.040 7.808-33.984 24.432-33.984h127.376c28.256 0 50.624 22.912 50.624 51.152v282.352c-0.016 16.624-16.96 29.536-34 24.432z" />
<glyph unicode="&#xe903;" glyph-name="uniE903" data-tags="uniE903" d="M802.512 480.528l-84.144-13.504c-6.544-1.024-13.68 3.52-15.696 9.44l-53.296 156c-0.48 1.408-1.184 2.544-1.808 3.776-0.496 1.248-0.96 2.496-1.648 3.68-4.080 7.232-10.72 12.448-18.688 14.672l-63.632 17.712c-0.304 0.080-0.592 0.064-0.88 0.144l-30.656 8.448c-14.096 3.888-34.144-0.496-45.264-9.664l-124.784-102.784c-11.792-9.696-18.16-28.928-14.496-43.744l35.024-142.224c3.584-14.576 17.728-29.136 32.176-33.152l1.328-0.352-50.928-127.088c-4.496-11.2-18.128-25.2-29.216-29.968l-127.968-55.12c-9.568-4.096-16.208-11.648-18.24-20.688-2.032-9.024 0.736-18.688 7.616-26.512l13.008-14.8c8.512-9.68 22.608-15.696 36.768-15.696 6.336 0 12.256 1.168 17.584 3.472l127.952 55.104c15.968 6.88 33.936 24.72 40.944 40.608l46.88 106.448 35.36-64.64c5.808-10.608 8.032-30.144 4.784-41.776l-42.528-151.92c-2.8-9.936-1.136-19.904 4.496-27.36 5.648-7.44 14.8-11.696 25.12-11.696h19.664c19.488 0 38.88 14.704 44.128 33.488l42.544 151.92c4.528 16.288 3.808 41.552-1.712 57.536l-42.288 122.752 46.192 166.096 29.776-90.16c4.528-13.744 18.528-23.728 33.264-23.728 1.712 0 3.44 0.144 5.136 0.416l121.376 19.68c16.336 2.656 29.12 17.68 29.12 34.256v13.296c0.080 17.568-14.336 30.544-32.368 27.632zM446.48 431.84l-21.008 73.328c-1.936 6.752 1.504 16.608 7.2 20.704l63.040 45.264-49.232-139.296zM619.328 702.096c58.032 0 105.248 47.232 105.248 105.296 0 58.048-47.216 105.296-105.248 105.296-58.016 0-105.216-47.248-105.216-105.296 0-58.064 47.2-105.296 105.216-105.296z" />
<glyph unicode="&#xe904;" glyph-name="uniE904" data-tags="uniE904" d="M194.768 238.128l21.632 28.816 32.464-21.632c14.416 25.248 28.848 50.464 39.664 79.312l-36.064 10.816 10.816 36.032 36.080-10.816c7.2 28.816 10.816 57.664 14.416 86.496h-36.080v36.032h36.080c0 28.832-7.216 61.264-14.416 86.496l-36.080-10.816-10.816 36.032 36.064 10.816c-10.832 28.832-21.648 54.064-39.664 79.28l-32.464-21.632-21.632 28.848 32.448 21.632c-14.416 21.632-32.448 39.648-50.496 57.664-72.128-79.28-119.008-187.408-119.008-306.336 0-104.496 36.064-201.808 93.776-277.488 10.816-10.816 25.232-28.816 25.232-28.816 18.048 18 36.080 36.032 50.496 54.032l-32.448 25.232zM840.352 771.488c-18.032-18.016-36.064-36.032-50.48-54.064l32.448-21.632-21.632-32.432-32.464 21.632c-14.432-25.216-28.864-50.448-39.664-79.28l36.064-10.816-10.832-36.032-36.064 10.816c-3.6-25.232-10.816-57.664-10.816-86.496h36.064v-36.032h-36.064c0-28.832 7.216-61.28 14.416-86.496l36.080 10.816 10.816-36.032-36.064-10.816c10.816-28.848 21.632-54.064 39.664-79.312l32.448 21.632 21.648-28.816-32.448-21.632c14.416-18.032 32.448-39.664 50.496-54.064 0 0 14.416 14.4 21.632 25.216 61.312 75.68 97.392 176.592 97.392 281.12-3.6 115.312-46.88 219.84-122.64 302.72zM735.76 173.248l-21.632 28.816 28.848 18.032c-18.032 28.848-32.464 57.664-43.28 90.096l-36.064-7.184-10.832 36.032 32.464 10.816c-7.216 28.816-14.416 64.88-14.416 97.312h-36.080v36.032h36.080c0 32.432 7.2 68.464 14.416 97.312l-32.464 10.816 10.832 36.032 32.448-10.816c10.832 32.432 25.248 61.264 43.28 90.096l-28.864 18.032 21.664 28.832 28.848-18.016c18.032 21.632 36.064 43.248 54.096 61.264-79.344 72.048-187.52 118.896-306.56 118.896s-227.216-46.848-306.576-118.928c18.032-18.016 36.080-39.632 54.112-61.264l25.248 18.016 21.632-28.832-28.848-18.032c18.032-28.832 32.448-57.664 43.28-90.096l32.448 10.816 10.832-36.032-32.464-10.816c7.216-32.432 14.432-64.88 14.432-97.312h36.064v-36.032h-36.064c0-32.432-7.216-68.496-14.432-97.312l32.464-10.816-10.832-36.032-32.448 10.816c-10.832-32.432-25.248-61.28-43.28-90.128l28.848-18-21.632-28.848-25.248 18.032c-18.032-21.632-36.080-43.248-54.112-61.28 79.36-75.68 187.552-118.912 306.576-118.912s227.216 46.848 306.56 118.912c-18.032 18.032-36.064 39.664-54.096 57.68l-25.248-18z" />
<glyph unicode="&#xe905;" glyph-name="uniE905" data-tags="uniE905" d="M512.096 901.472c-250.608 0-453.568-203.024-453.568-453.52 0-250.336 202.96-453.44 453.568-453.44 250.352 0 453.376 203.104 453.376 453.44 0.048 250.496-202.992 453.52-453.376 453.52zM511.936 104.544c-158.224 0-286.416 128.208-286.416 286.496 0 158.224 128.24 286.48 286.416 286.48 158.224 0 286.496-128.304 286.496-286.512 0-158.256-128.272-286.464-286.496-286.464zM568.688 402.384v1.888c51.376 23.776 69.344 62.24 69.344 97.552 0 52.64-41.024 102.656-121.968 102.656-73.68 0-129.552-44.944-129.552-111.024 0-35.872 19.92-71.856 66.688-93.68l0.704-1.856c-51.376-21.824-82.832-59.696-82.832-112.32 0-60.928 52.592-112.288 139.92-112.288 79.52 0 141.744 48.096 141.744 121.248 0 50.048-32.064 87.344-84.048 107.824zM440.384 497.344c0 35.904 25.68 66.72 72.496 66.72 50.672 0 70.608-34.624 70.608-68 0-37.84-27.6-63.52-63.6-75.68-48.016 12.832-80.176 35.248-79.504 76.96zM512.336 214.368c-53.312 0-85.392 37.184-83.456 78.928 0 39.776 26.224 72.528 75.056 86.592 56.448-16.048 91.728-41.024 91.728-91.088 0-42.976-32.704-74.432-83.328-74.432z" />
<glyph unicode="&#xe906;" glyph-name="uniE906" data-tags="uniE906" d="M424.304 233.472c-0.064-0.064-0.144-0.128-0.224-0.208l8.672-49.424 49.376-8.672c0.080 0.064 0.144 0.144 0.208 0.224l-9.424 48.64-48.608 9.44zM861.6 613.056c-191.664 191.808-301.664 93.248-319.408 26.336-8.464-31.984-7.664-45.264-7.664-45.264-28.816 14.192-102.336 34.16-165.488-197.76l-135.808-167.344c30.432-52.576 65.344-98.56 105.776-139.008s86.368-75.408 138.88-105.856l167.2 135.904c54.256 25.248 142.432 35.232 198.816 91.68 115.632 115.712 191.152 227.696 17.696 401.312zM590.72 201.28c-11.408-11.408-29.872-11.408-41.28 0-2.688 2.688-4.72 5.792-6.16 9.104l-35.632 6.928 6.896-35.68c3.312-1.44 6.416-3.472 9.104-6.16 11.408-11.408 11.408-29.904 0-41.312-11.392-11.408-29.856-11.408-41.248 0-2.576 2.576-4.528 5.52-5.936 8.656l-37.664 6.592 6.608-37.68c3.12-1.408 6.064-3.376 8.64-5.936 11.392-11.408 11.392-29.904 0-41.312s-29.872-11.408-41.264 0c-11.392 11.408-11.392 29.904 0 41.312 0.096 0.096 0.208 0.16 0.304 0.272l-8.672 49.424-49.376 8.688c-0.080-0.112-0.176-0.224-0.272-0.32-11.392-11.408-29.872-11.408-41.264 0s-11.392 29.904 0 41.296c11.392 11.408 29.872 11.408 41.264 0 2.576-2.56 4.528-5.52 5.936-8.64l37.68-6.624-6.624 37.712c-3.12 1.408-6.064 3.376-8.64 5.936-11.392 11.408-11.392 29.888 0 41.296s29.872 11.408 41.264 0c2.704-2.704 4.736-5.792 6.16-9.104l35.648-6.912-6.912 35.664c-3.296 1.44-6.4 3.472-9.104 6.192-11.392 11.408-11.392 29.888 0 41.28 11.392 11.408 29.872 11.408 41.264 0 11.376-11.376 11.392-29.808 0.064-41.216l9.424-48.64 48.608-9.44c11.408 11.328 29.808 11.296 41.184-0.064 11.376-11.424 11.376-29.904 0-41.312zM292.56 348.976l-12.352 15.936-47.632-13.568c-0.032-0.128-0.064-0.208-0.096-0.32l29.632-39.6 30.448 37.552zM183.312 294.608c3.456-1.136 6.528-2.864 9.2-5.024l36.592 11.136-22.928 30.656c-3.408-0.16-6.928 0.256-10.368 1.392-15.312 5.008-23.664 21.52-18.64 36.848s21.488 23.68 36.8 18.656c3.632-1.184 6.848-3.040 9.616-5.344l34.912 9.952-22.272 28.688c-3.584-0.224-7.28 0.192-10.896 1.376-15.312 5.024-23.664 21.536-18.64 36.848 5.008 15.344 21.488 23.68 36.8 18.656 15.28-4.992 23.616-21.424 18.672-36.72l30.368-39.152 47.616 13.584c1.488 4.48 3.968 8.336 7.088 11.456 26.848 88.176 55.152 136.304 55.152 136.304s-29.2 78.096-118.16 43.328c105.328 49.952 28.816 129.856 28.816 129.856s90.576-69.024 178.096-106.672c4.32 0.656 8.672 1.008 13.088 1.008 1.888 0 3.744-0.064 5.632-0.176 1.040 4.768 2.304 10.016 3.824 15.776 12.208 45.984 53.92 95.024 119.008 105.52-21.664 48.592-73.376 99.792-181.36 135.216-233.12 76.384-298.816-41.664-349.712-197.136-24.832-75.872 6.096-159.136 8.128-218.976l-45.616-210.688c50.88-33.12 102.768-58.352 157.104-76.176 1.84-0.608 3.664-1.168 5.52-1.76-6.512 10.128-12.848 20.496-19.040 31.184l-10.208 17.632 26.864 33.088-22.304-6.784c-0.048-0.128-0.064-0.256-0.112-0.368-5.008-15.344-21.488-23.68-36.816-18.656-15.312 5.008-23.664 21.504-18.64 36.832 5.024 15.312 21.504 23.68 36.816 18.64z" />
<glyph unicode="&#xe907;" glyph-name="uniE907" data-tags="uniE907" d="M511.984 901.488c-250.32 0-453.472-203.168-453.472-453.472s203.152-453.504 453.472-453.504c250.336 0 453.504 203.184 453.504 453.504s-203.152 453.472-453.504 453.472zM403.168 393.584c-29.024 0-54.432 25.408-54.432 54.432s25.408 54.4 54.432 54.4c29.008 0 54.4-25.376 54.4-54.4s-25.392-54.432-54.4-54.432zM511.984 574.992c-29.008 0-54.4 25.408-54.4 54.4 0 29.024 25.408 54.432 54.4 54.432 29.024 0 54.432-25.408 54.432-54.432 0-29.008-25.408-54.4-54.432-54.4zM620.832 393.584c-29.024 0-54.4 25.408-54.4 54.432s25.376 54.4 54.4 54.4 54.4-25.376 54.4-54.4-25.376-54.432-54.4-54.432z" />
<glyph unicode="&#xe908;" glyph-name="uniE908" data-tags="uniE908" d="M849.040 518.064h-8.88v67.184c0 13.088-10.576 23.728-23.696 23.728-13.136 0-23.712-10.64-23.712-23.728v-67.184h-61.664v41.696c0 92.832-70.16 168.352-156.368 168.352h-1.632c26.192 18.544 43.44 48.976 43.44 83.536 0 56.56-45.856 102.416-102.352 102.416s-102.368-45.888-102.368-102.416c0-34.592 17.264-65.008 43.44-83.536h-1.552c-86.256 0-156.448-75.52-156.448-168.352v-41.696h-61.648v67.184c0 13.088-10.592 23.728-23.712 23.728-13.088 0-23.696-10.64-23.696-23.728v-67.184h-8.896c-13.104 0-23.696-10.624-23.696-23.712 0-13.104 10.592-23.728 23.696-23.728h8.896v-464.976c0-13.104 10.608-23.712 23.696-23.712 13.12 0 23.712 10.608 23.712 23.712v464.96h63.84c5.824-19.52 23.744-33.856 45.184-33.856 21.408 0 39.312 14.336 45.168 33.856h16.48v-292.048c0-26.176 21.232-47.44 47.408-47.44 26.192 0 47.424 21.264 47.424 47.44v194.816h26.032v-194.816c0-26.176 21.232-47.44 47.424-47.44 26.176 0 47.408 21.264 47.408 47.44v292.048h16.48c5.856-19.52 23.76-33.856 45.168-33.856 21.424 0 39.376 14.336 45.2 33.856h63.824v-464.976c0-13.104 10.592-23.712 23.712-23.712 13.088 0 23.696 10.608 23.696 23.712v464.976h8.896c13.104 0 23.712 10.624 23.712 23.728 0.048 13.072-10.48 23.728-23.616 23.728zM392.064 518.064v41.696c0 17.696 5.472 33.728 14.304 46.432v-88.128h-14.304zM622 606.176c8.784-12.688 14.304-28.72 14.304-46.448v-41.696h-14.304v88.144z" />
<glyph unicode="&#xe909;" glyph-name="uniE909" data-tags="uniE909" d="M532.608 269.152l0.16-67.488c0.080-26.88-21.664-49.056-48.544-49.056-0.032 0-0.080 0-0.128 0-26.832 0-48.608 21.984-48.672 48.816l-0.16 67.36c-0.16 63.984-32.272 123.072-85.904 157.968l-62.752 40.88c-24.112 15.68-39.568 42.256-41.344 71.008-1.76 28.592 9.664 55.488 31.392 73.776 19.568 16.512 46.72 19.84 59.472 20.448 3.104 0.336 6.288 0.336 9.504 0.064 2.64 0.176 5.296 0.208 7.984 0.080l271.424-11.76c36-1.568 64.736-28.928 69.216-63.456l3.536-4.032c31.744-36.352 77.664-57.216 125.936-57.216h20.432c26.896 0 48.672-21.792 48.672-48.672 0-26.864-21.776-48.672-48.672-48.672h-20.432c-70.464 0-137.696 28.096-187.152 77.616-4.736-0.976-9.632-1.488-14.64-1.488-1.056 0-2.128 0.016-3.2 0.048l-183.216 7.952c61.184-53.76 96.88-131.2 97.088-214.176zM983.68 161.552c0-103.504-83.904-187.392-187.392-187.392s-187.376 83.888-187.376 187.392c0 103.472 83.888 187.376 187.376 187.376s187.392-83.92 187.392-187.376zM935.008 161.552c0 76.464-62.24 138.688-138.72 138.688s-138.688-62.224-138.688-138.688c0-76.496 62.224-138.736 138.704-138.736s138.704 62.224 138.704 138.736zM396.384 161.552c0-103.504-83.904-187.392-187.376-187.392-103.488 0-187.376 83.888-187.376 187.392 0 103.472 83.888 187.376 187.376 187.376s187.376-83.92 187.376-187.376zM347.712 161.552c0 76.464-62.24 138.688-138.704 138.688-76.496 0-138.704-62.224-138.704-138.688 0-76.496 62.224-138.736 138.704-138.736s138.704 62.224 138.704 138.736zM829.488 593.44c45.424 18.368 67.36 70.096 48.992 115.536-18.384 45.424-70.112 67.36-115.536 48.976-45.44-18.384-67.376-70.096-48.992-115.536 18.384-45.424 70.112-67.36 115.536-48.976z" />
<glyph unicode="&#xe90a;" glyph-name="uniE90A" data-tags="uniE90A" d="M366.288 349.040c-14 0-25.328-11.328-25.328-25.296 0-13.984 11.344-25.296 25.328-25.296s25.344 11.312 25.344 25.296c0 13.968-11.344 25.296-25.344 25.296zM951.808 806.272l-8.928 8.944c-9.888 9.888-25.936 9.888-35.856 0l-67.216-67.152h-146.816c-13.984 0-25.328-11.328-25.328-25.296v-12.64c0-13.984 11.344-25.312 25.328-25.312h56.72l-124.704-298.96-183.28 112.176c-8.224 5.92-16.912 11.232-25.984 15.92l-0.544 0.288c-15.696 8.016-32.592 14.016-50.304 17.824l-37.936 89.536c0 0 57.008 9.216 74.672 12.656 17.68 3.408 25.344 11.328 25.344 25.296v36.912c0 13.984-11.344 25.312-25.344 25.312h-240.64c-14 0-25.328-11.328-25.328-25.312v-49.552c0-13.984 11.328-25.296 25.328-25.296h118.336l36.016-85.024c-110.768-3.328-199.536-94-199.536-205.408 0-90.288 58.304-166.896 139.344-194.496h-149.056c-14 0-25.328-11.312-25.328-25.296v-12.656c0-13.968 11.328-25.296 25.328-25.296h677.664c13.984 0 25.328 11.328 25.328 25.296v12.656c0 13.984-11.344 25.296-25.328 25.296h-107.328c41.024 18.88 69.52 60.256 69.52 108.336 0 42.656-22.464 80-56.192 101.104l0.032 0.112-26.912 16.48 134.384 322.080h57.216c0.176 0 0.336 0.048 0.496 0.048 6.688-0.128 13.36 2.304 18.448 7.36l78.368 78.272c9.904 9.888 9.904 25.904 0.016 35.792zM465.52 160.080h-154.112c-9.616 0-17.408 7.792-17.408 17.392 0 9.632 7.792 17.408 17.408 17.408h29.664v61.2c-27.488 10.24-47.072 36.656-47.072 67.664 0 39.888 32.368 72.208 72.304 72.208s72.304-32.32 72.304-72.208c0-30.976-19.552-57.36-47.008-67.616v-61.264h73.92c9.632 0 17.408-7.776 17.408-17.408 0-9.584-7.792-17.376-17.408-17.376z" />
<glyph unicode="&#xe90b;" glyph-name="uniE90B" data-tags="uniE90B" d="M108.288 73.616c24.448 23.296 55.44 36.784 88.624 40.176l1.232 109.424c-6.176 4.784-76.48 75.648-81.968 81.136l91.968-54.464c8.48-5.024 18.304-6.336 27.312-4.24l147.584 34.384c19.952 4.656 32.336 24.608 27.696 44.528-4.656 19.968-24.528 32.416-44.512 27.696l-133.088-31.024-79.136 46.928c55.424-16.16 43.776-12.768 70.864-20.688l89.008 20.736 79.040 71.472c15.152 13.744 16.368 37.2 2.624 52.384-13.76 15.216-37.264 16.336-52.4 2.64l-113.056-102.224-77.632 25.312c-1.184 0.4-19.856 3.872-26.56 3.872h-30.624c-40.672 0-73.648-32.976-73.648-73.664v-260.16c28.48 12.496 62.624 7.808 86.672-14.224zM110.976 443.168c47.232 0 85.52 38.288 85.52 85.52s-38.288 85.536-85.52 85.536c-47.264 0-85.552-38.304-85.552-85.536 0-47.248 38.288-85.52 85.552-85.52zM603.040 472.080c-15.936-12.864-18.48-36.176-5.664-52.16l102.064-126.992c2.64-3.28 5.808-6.096 9.344-8.304l67.456-41.856c-1.984-5.584-3.104-11.408-3.728-17.376l44.864 13.072-79.152-46.896-133.088 31.008c-20.048 4.64-39.84-7.776-44.528-27.68-4.608-19.952 7.76-39.92 27.712-44.544l147.6-34.384c8.976-2.096 18.816-0.816 27.312 4.208l91.968 54.512-60.88-60.944c44.336 6.656 91.456-5.040 125.488-35.6 8.992 7.28 19.248 12.048 29.92 14.88v125.296c0 40.688-32.976 73.632-73.632 73.632h-30.592c-2.32 0-4.464-0.432-6.704-0.624l-85.488 52.992-98.096 122.064c-12.816 15.936-36.128 18.464-52.176 5.696zM860.384 313.504c47.264 0 85.536 38.272 85.536 85.52 0 47.216-38.272 85.504-85.536 85.504-47.232 0-85.536-38.288-85.536-85.52s38.304-85.504 85.536-85.504zM560.176 554.528c48.256 0 87.328 39.104 87.328 87.328 0 48.256-39.072 87.328-87.328 87.328s-87.376-39.088-87.376-87.328c0-48.224 39.12-87.328 87.376-87.328zM993.072 38.16c-12.528 12.576-32.976 12.608-45.6-0.016-14.912-14.928-40.864-14.864-55.76 0-39.184 39.264-107.664 39.36-147.056-0.032-14.816-14.896-40.832-14.864-55.728 0.032-38.688 38.72-108.288 38.784-147.072-0.048-15.36-15.344-40.336-15.392-55.776 0.048-39.216 39.264-106.48 40.48-148.256-1.248-14.224-14.272-39.024-14.24-53.328 0-38.544 38.64-105.872 38.672-144.544 0-16.88-16.864-46.368-16.864-63.248 0-12.608 12.608-33.008 12.592-45.616 0.016-12.592-12.576-12.592-33.008 0-45.616 20.624-20.608 48.032-31.984 77.232-31.984s56.576 11.376 77.216 31.968c14.304 14.272 39.088 14.336 53.36 0 38.672-38.624 104.56-39.872 145.744 1.264 14.928 14.928 40.816 14.992 55.888-0.080 40.48-40.432 106.352-40.512 147.040 0.128 14.608 14.624 41.024 14.656 55.696-0.032 39.36-39.312 107.744-39.296 147.008-0.064 15.024 14.992 40.928 14.992 55.824 0.048 39.312-39.28 107.824-39.28 147.040 0.032 12.592 12.592 12.592 33.024-0.064 45.584z" />
<glyph unicode="&#xe90c;" glyph-name="uniE90C" data-tags="uniE90C" d="M931.472 281.648c2.912 5.824 5.776 13.84 6.848 15.088-51.152 51.12-113.232 94.96-182.624 127.84-29.28-73.296-73.216-135.6-124.496-190.56 109.84-33.008 208.72-11.008 300.272 47.632zM938.32 296.736c0.16-0.144 0.32-0.288 0.464-0.432 0 0.736-0.192 0.752-0.464 0.432zM393.168 325.632c47.616-7.328 95.2-25.664 142.816-51.296 18.32-11.008 36.608-18.336 58.592-25.664 51.264 54.976 95.2 120.944 128.176 194.224-62.256 22-131.84 36.656-201.408 36.656-36.624-62.32-80.56-113.616-128.176-153.92zM451.76 706.752c10.992-65.968 32.96-131.936 69.584-194.24 168.432-3.664 318.576-69.632 432.096-175.904 0-3.664 3.664 11.008 3.664 22 7.328 32.992 11.008 65.968 11.008 98.944 0 18.336 0 36.656-3.664 51.312-2.896 14.464-5.712 28.704-5.008 30.56-131.76 127.424-314.256 192.896-507.68 167.328zM959.408 539.424c0.448-0.416 0.928-0.816 1.36-1.248-0.784 1.552-1.152 1.744-1.36 1.248zM942.448 604.144c-0.16 0.128-0.32 0.24-0.464 0.352 0.288-0.768 0.464-1.088 0.464-0.352zM941.984 604.496c-1.168 3.12-4.64 16.48-10.512 25.296-65.904 168.576-230.688 285.856-421.136 285.856-14.64 0-29.28 0-43.936-3.664h-10.992c-10.992-54.976-10.992-113.616-7.328-168.576 182.912 25.616 358.48-29.2 493.904-138.912zM942.448 215.664c-120.848-80.608-259.984-98.944-406.464-18.32-161.104 91.632-322.24 69.632-468.72-18.32-18.304-10.976-36.608-21.984-51.264-32.976v-47.648c21.968 18.336 43.952 32.992 69.584 47.648 139.136 80.624 285.632 102.624 432.112 18.336 161.104-91.616 311.248-69.632 446.736 18.336 14.64 11.008 29.296 18.32 40.288 29.312v47.648c-18.32-14.688-36.624-29.344-62.272-44.016zM356.56 340.288c51.248 40.32 95.2 95.28 131.808 153.92-73.216 128.272-95.2 274.848-73.216 410.448 0 0-7.344 0-11.008-3.664-51.264-10.992-98.88-32.992-142.816-58.64-8.88-5.92-19.968-14.096-22.048-15.152-29.12-164.768 7.52-344.144 117.28-486.912zM239.296 827.2c0.032 0.16 0.048 0.32 0.080 0.48-0.704-0.688-0.56-0.72-0.080-0.48zM535.984 87.424c-139.136 76.96-281.952 73.28-410.128 10.992v-40.304c124.496 62.288 259.984 73.28 395.488-3.664 131.808-73.296 260-73.296 373.504-21.984v40.32c-109.84-51.328-230.688-54.992-358.864 14.64zM316.288 329.296c-98.88 135.6-139.152 300.496-120.848 458.080 0 0-14.656-14.672-25.648-25.664-73.232-80.624-117.184-190.56-117.184-307.84 0-65.968 14.656-131.936 40.288-190.56 73.248 43.984 146.48 65.984 223.392 65.984z" />
<glyph unicode="&#xe90d;" glyph-name="uniE90D" data-tags="uniE90D" d="M174.496 608.112l0.88-6.432c13.024-17.024 42.416-50.896 92.96-86.016l9.824 2.96c16.864 42.16 46.992 103.712 71.952 139.872l0.144 0.208c93.76 146.8 214.144 194.976 298.576 209.552l0.944 12.704c-30.32 9.952-61.008 16.272-93.824 19.328-13.056 1.216-24.896 2.224-37.328 2.224-16.48 0-32.464-1.856-50.288-5.824-55.248-12.32-107.312-43.376-163.872-97.744-59.744-57.472-102.16-119.584-129.632-189.984l-0.336-0.848zM275.584 265.568c54.16-18.688 112.128-28.16 172.288-28.16h0.016c21.728 0 44.208 1.216 66.8 3.664 16 1.712 31.792 4.4 48.528 7.216l3.728 0.624 5.392 7.568c-10.304 61.664-34.304 118.72-67.584 160.688l-6.4 2.368c-1.936-0.368-3.856-0.752-5.568-1.088-35.136-6.656-70.368-7.216-104.048-1.6-106.784 17.792-193.744 74.096-258.448 167.344-8.864 12.784-16.512 26.24-22.832 37.696l-11.872-0.816c-24.784-64.432-35.936-137.776-36.368-162.72l1.008-3.648c8.432-13.264 29.6-46.192 44.192-65.536 43.728-57.92 101.312-99.504 171.168-123.6zM149.856 657.104c25.584 52.56 56.912 99.728 93.088 140.176l-8.88 9.6c-37.184-28.64-70.128-63.6-97.872-103.872-2.656-3.856-7.28-11.44-10.704-17.136l-0.112-6.56c4.144-7.472 8.48-15.072 12.912-22.64l11.568 0.432zM335.856 544.192c-6.464-14.768-11.984-29.776-17.84-45.68l-1.312-3.584 3.872-8.416c42.912-15.904 87.664-24.336 129.472-24.336 15.024 0 29.68 1.072 43.616 3.2l5.232 4.384c0.624 1.872 1.248 3.728 1.808 5.376 11.68 33.904 28.592 64.56 50.272 91.088 68.464 83.872 160.512 131.392 273.6 141.248 9.536 0.848 19.664 1.216 31.872 1.216 4.048 0 8.144-0.032 12.192-0.096l5.184 10.704c-43.632 53.488-101.76 99.584-123.2 112.352l-3.664 0.928c-15.712-0.736-54.848-2.768-78.832-5.824-72.016-9.184-136.704-38.528-192.304-87.184-58.608-51.296-105.696-117.024-139.968-195.376zM923.728 644.992c-2.032 4.224-6.288 12.032-9.52 17.824l-5.632 3.376c-8.496 0.144-17.392 0.208-26.064 0.144l-5.392-10.256c32.752-48.4 57.968-99.104 74.912-150.688l12.768 2.928c-6.224 46.512-20.032 92.496-41.072 136.672zM464.512 22.096c-42.32 0-83.872 4.288-123.504 12.72l-3.904-12.464c43.344-18.096 90.048-29.312 138.816-33.408 4.656-0.4 13.568-0.624 20.208-0.784l5.744 3.152c3.024 5.008 7.792 12.944 13.264 22.464l-6.128 9.808c-14.96-0.992-29.936-1.488-44.496-1.488zM823.008 658.432l-0.64 0.816-5.984 2.432c-21.28-2.784-65.28-11.312-120.976-37.536l-2.336-10c28.080-35.648 66.368-92.496 85.216-132.224l0.096-0.224c51.472-99.024 68.624-198.336 51.056-295.184-4.24-23.312-10.464-46.16-18.512-67.936l10.528-7.152c23.68 21.248 44.416 44.592 63.424 71.408 17.664 24.976 30.032 43.84 40.656 77.68 16.944 54 16.064 114.624-2.784 190.768-19.904 80.496-52.528 148.24-99.744 207.152zM686.4 551.392c-9.552 12.96-19.792 25.232-30.688 38.288l-2.416 2.912-9.232 0.864c-48.080-39.952-85.296-89.456-104.784-139.328l1.184-6.736c1.296-1.488 2.608-2.96 3.728-4.272 23.552-27.088 41.664-57.024 53.808-89.056 38.432-101.184 33.616-204.688-14.336-307.568-6.576-14.096-14.336-27.472-21.056-38.72l6.688-9.84c68.16 11.056 137.12 38.4 158.896 50.56l2.64 2.72c7.2 13.968 25.008 48.848 34.336 71.184 28.016 66.976 34.928 137.664 20.544 210.128-15.168 76.416-48.576 150.048-99.312 218.864zM565.52 203.664c-36.512-5.12-82.32-8.336-119.504-8.336-14.224 0-26.912 0.464-37.664 1.408h-0.256c-111.472 5.472-205.904 40.688-280.704 104.656-18 15.376-34.608 32.288-49.36 50.192l-11.504-5.472c6.416-31.152 16.16-60.848 29.744-90.752 12.656-27.84 22.72-48.064 46.608-74.288 38.128-41.84 90.928-71.632 166.208-93.68 53.28-15.664 105.984-23.6 156.672-23.6 24.224 0 48.608 1.808 72.512 5.344l1.008 0.16 5.136 3.968c8.336 19.744 23.104 62.064 28.528 123.344l-7.424 7.056z" />
<glyph unicode="&#xe90e;" glyph-name="uniE90E" data-tags="uniE90E" d="M898.16 382.896c-9.168-7.664-20.32-11.408-31.424-11.408-14.064 0-28.016 6.016-37.728 17.648l-14.88 17.824c-38 45.552-79.664 88.176-124.336 127.28 0 0 7.808-310.88-195.296-496.992l-24.288-23.648c-9.536-9.28-21.904-13.92-34.256-13.92-12.784 0-25.568 4.976-35.184 14.864-18.928 19.424-18.512 50.512 0.912 69.424l24.288 23.664c56.96 55.456 96.304 125.952 113.888 202.656-32.192-9.84-65.584-14.848-98.992-14.848-62.256 0-124.512 17.12-178.864 51.36-22.944 14.448-29.824 44.784-15.36 67.712 14.448 22.96 44.768 29.84 67.712 15.392 64.304-40.512 144.24-47.088 213.648-19.872l19.2 175.888c-4.544-0.224-9.088-0.368-13.664-0.368-70.64 0-139.328 26.352-192.848 75.792l-3.184 2.944c-4.064-0.592-8.224-0.912-12.448-0.912-47.552 0-86.096 38.544-86.096 86.096 0 47.568 38.544 86.096 86.096 86.096s86.096-38.528 86.096-86.096c0-6.080-0.64-12.016-1.84-17.744 47.104-42.32 111.504-57.888 172.864-41.552l29.088 7.76c0.32 0.080 0.64 0.112 0.976 0.208 0.88 0.208 1.728 0.368 2.608 0.544 0.768 0.144 1.52 0.288 2.272 0.368 0.784 0.128 1.584 0.192 2.384 0.272 0.848 0.064 1.664 0.144 2.464 0.176 0.736 0.016 1.488 0.016 2.256 0.016 0.832-0.016 1.68-0.016 2.512-0.048 0.784-0.048 1.552-0.144 2.304-0.224 0.8-0.080 1.616-0.16 2.368-0.288 0.848-0.128 1.68-0.304 2.528-0.496 0.672-0.128 1.36-0.272 2.032-0.432 0.928-0.224 1.824-0.512 2.72-0.8 0.608-0.192 1.2-0.368 1.792-0.576 0.896-0.32 1.792-0.688 2.672-1.072 0.592-0.256 1.152-0.496 1.728-0.768 0.816-0.384 1.632-0.816 2.448-1.264 0.624-0.352 1.232-0.688 1.856-1.056 0.704-0.416 1.392-0.88 2.064-1.328 0.72-0.464 1.408-0.96 2.080-1.472 0.288-0.208 0.592-0.384 0.864-0.592l49.056-38.496c68.128-53.44 130.768-114.24 186.24-180.704l14.88-17.84c17.408-20.832 14.624-51.808-6.208-69.168zM621.152 719.568c55.456 0 100.4 44.96 100.4 100.432 0 55.456-44.96 100.432-100.4 100.432-55.472 0-100.432-44.976-100.432-100.432 0-55.472 44.96-100.432 100.432-100.432z" />
<glyph unicode="&#xe90f;" glyph-name="uniE90F" data-tags="uniE90F" d="M746.080 22.784l-95.488 373.056c-1.184 4.592-3.072 8.816-5.536 12.592 0.272 11.216-1.952 22.592-7.216 33.632l-89.472 187.68c-2.912 6.096-6.56 11.456-10.72 16.256 32.368 52.672 45.968 114.336 37.248 146.208-4.768 17.328-34.656 105.28-156.448 133.872-19.76 4.608-39.536-7.536-44.192-27.152-4.656-19.648 7.568-39.312 27.312-43.952 81.328-19.088 99.616-71.648 102.336-81.6 2.384-12.624-7.584-59.328-35.152-98.72-7.376 0-14.736-0.752-21.84-2.192l-11.136-31.36-27.168 10.384c1.040 0.448 2.096 0.8 3.136 1.28 47.216 22.256 67.344 78.352 44.976 125.328-22.384 46.96-78.816 66.976-126.032 44.72s-67.36-78.368-44.976-125.328c20.416-42.816 69.104-63.12 113.344-49.52-6.896-6.352-13.024-13.696-18.112-21.696-1.552-1.616-3.008-3.344-4.288-5.28-42.4-64.608-56.928-123.68-43.184-175.584 12.544-47.36 47.68-86.208 104.464-115.456 5.408-2.784 11.184-4.096 16.864-4.096 2.72 0 5.392 0.368 8.016 0.976l-70.352-305.024c-5.36-23.216 9.248-46.4 32.608-51.712 3.28-0.752 6.528-1.12 9.744-1.12 19.792 0 37.664 13.568 42.288 33.568l72.256 313.216c10.224 1.008 20.432 3.472 30.224 7.344l82.336-321.568c4.992-19.536 22.672-32.528 42.032-32.528 3.552 0 7.152 0.4 10.736 1.344 23.248 5.84 37.312 29.328 31.392 52.432zM404.528 464c-1.92 7.232-2.72 14.96-2.528 23.072l32.048-67.248c-15.328 13.488-25.296 28.224-29.52 44.176z" />
<glyph unicode="&#xe910;" glyph-name="uniE910" data-tags="uniE910" d="M618.512 507.088c18.848-12.064 37.664-24.16 56.496-36.224 0.784-0.512 1.6-1.024 2.4-1.552 8.4-39.856 43.808-69.856 86.064-69.856 48.528 0 88 39.504 88 88.080 0 42.896-30.784 78.688-71.376 86.48v353.984h-33.216v-353.968c-19.744-3.792-37.184-14.24-49.872-28.88-6.256 4.496-12.528 9.008-18.784 13.504-18.32 13.136-97.968 70.336-100.368 72.048-12.032 8.64-25.536 15.136-39.728 19.28-33.712 9.808-71.424 6.544-102.24-10.608-9.44-5.232-18.256-12-27.104-18.16l-44.336-30.752c-18.928-13.12-37.84-26.256-56.752-39.376-0.448-0.336-0.928-0.64-1.36-0.96-12.16 12.016-27.776 20.544-45.2 23.888v353.984h-33.2v-353.968c-40.608-7.792-71.392-43.6-71.392-86.48 0-48.576 39.472-88.080 87.984-88.080 45.808 0 83.536 35.232 87.616 80.016 16.32 10.464 32.624 20.928 48.944 31.376 5.328 3.424 10.656 6.832 15.984 10.256-1.008-33.904 0.704-67.904 4.784-101.584 2.544-21.152 6.064-42.192 10.512-63.056 2.304-10.752 4.4-21.776 7.952-32.192 3.088-9.056 7.536-17.632 13.152-25.376 2.736-3.776 5.744-7.376 9.008-10.72 0.88-0.912 1.552-1.536 2.016-2.688 0.384-0.912 0.816-1.84 1.248-2.752 0.72-1.408 1.424-2.848 2.144-4.256 4.272-8.56 8.992-16.944 13.84-25.184 11.056-18.656 22.736-36.88 35.056-54.72 25.84-37.44 54.688-72.816 85.408-106.336 14.976-16.32 30.464-32.096 46.432-47.408 13.632-13.056 27.664-25.6 41.712-38.128 11.6-10.336 28.784-12.4 42.16-4.096 14.432 8.976 20.368 27.664 13.744 43.28-2.368 5.632-6.256 9.904-10.496 14.128-6.688 6.656-13.376 13.28-20.064 19.936-15.408 15.248-29.808 31.664-44.032 48-29.808 34.288-56.912 71.216-81.184 109.6-6.256 9.904-12.224 20-18.096 30.128 0.464 0.224 0.944 0.4 1.408 0.656 0.368-0.592 0.752-1.152 1.12-1.712 0.752-1.12 1.536-2.256 2.32-3.376l4.784-7.024c3.216-4.656 6.432-9.28 9.744-13.872 6.56-9.12 13.28-18.128 20.096-27.056 13.872-18.16 28.624-35.568 43.504-52.88 14.624-17.008 30.432-32.976 46.096-49.008 14.848-15.216 30.752-29.472 46.592-43.632 4.656-4.128 9.184-8.912 14.4-12.32 6.848-4.496 15.184-6.432 23.312-5.472 16.944 2 30.224 16.528 30.72 33.568 0.32 9.632-3.472 19.088-10.288 25.872-11.68 11.68-23.536 23.184-34.848 35.28-15.088 16.096-29.808 32.496-43.84 49.536-28.944 35.152-55.28 72.128-78.976 111.008-5.712 9.408-11.152 19.008-16.432 28.688-1.184 2.192-2.368 4.336-3.536 6.528-1.12 2.128-0.032 5.776 0.096 8.224 0.32 5.536 0.128 11.088-0.528 16.592-1.344 11.28-4.816 22.32-7.088 33.472-2.16 10.4-4 20.912-5.536 31.424-4.368 30.592-6.16 61.664-4.496 92.544 9.184-5.888 18.336-11.76 27.52-17.648zM763.488 542.384c30.224 0 54.784-24.592 54.784-54.832 0-30.256-24.56-54.848-54.784-54.848-1.776 0-3.568 0.096-5.312 0.272 6.032 1.952 11.6 5.504 15.84 10.544 10.464 12.48 10.848 31.168 0.816 44.048-2.912 3.696-6.432 6.352-10.192 9.040-11.056 7.952-22.128 15.872-33.184 23.824-2.432 1.728-4.88 3.488-7.28 5.216 9.968 10.336 23.904 16.736 39.312 16.736zM256.032 515.28l-28.928-20.064c-6.656-4.608-11.68-11.072-14.096-18.896-4.896-15.92 2.4-33.568 17.184-41.28 0.624-0.32 1.248-0.608 1.872-0.896-24.24 5.664-42.352 27.44-42.352 53.408 0 30.24 24.576 54.832 54.784 54.832 12.736 0 24.448-4.368 33.76-11.68-7.392-5.152-14.816-10.288-22.224-15.424zM442.272 684.768c10.8-7.264 23.024-12.32 35.808-14.816l0.128-0.016c31.648-6.16 64.928 4.048 87.744 26.832 23.152 23.12 33.312 57.328 26.56 89.36-6.56 31.2-28.592 57.92-58.048 70.176-30.096 12.544-65.216 9.056-92.256-9.184s-43.424-49.52-43.12-82.16c0.288-31.904 16.768-62.368 43.184-80.192z" />
<glyph unicode="&#xe911;" glyph-name="uniE911" data-tags="uniE911" d="M130.176 524.96c46.384 0 84 37.568 84 84 0 46.384-37.616 84-84 84s-84.032-37.632-84.032-84c0-46.432 37.632-84 84.032-84zM319.456 179.632l81.392-63.888c20.688-16.272 50.592-12.416 66.688 8.064 16.208 20.64 12.608 50.496-8.048 66.688l-100.128 78.608-39.904-89.472zM638.608 524.96c46.384 0 83.968 37.568 83.968 84 0 46.384-37.584 84-83.968 84-46.416 0-84.032-37.632-84.032-84 0-46.432 37.616-84 84.032-84zM827.872 179.632l81.408-63.888c20.704-16.272 50.592-12.416 66.704 8.064 16.192 20.64 12.592 50.496-8.080 66.688l-100.112 78.608-39.92-89.472zM990.048 50.8c-12.352 12.352-32.416 12.336-44.768 0-14.688-14.656-40.176-14.656-54.832 0-29.056 29.104-74.528 36.192-111.664 21.344-11.92-4.752-24.016-11.728-33.408-21.040l168.592 380.016 1.168 0.144c21.68 2.944 36.848 22.88 33.936 44.544-2.928 21.664-22.912 36.896-44.544 33.968l-200.080-26.976c-13.552 13.424-31.792 21.008-50.88 21.008h-30.064c-39.92 0-72.336-32.4-72.336-72.336v-216.304c0-26.4 13.088-51.056 34.944-65.888 21.84-14.848 49.6-17.856 74.112-8.112l56.416 22.432 0.112 0.224 53.552 120.112-46.192-16.544 1.536 138.352c123.664 16.656 97.184 13.072 132.992 17.904l-166.64-373.424c-0.288 0.224-0.592 0.288-0.816 0.528-39.776 39.808-104.528 39.84-144.512-0.064-14.432-14.448-40.128-14.512-54.688 0.064-38.56 38.56-104.592 39.808-145.664-1.248-14-13.968-38.368-13.968-52.304 0-7.456 7.040-13.616 11.952-26.528 18.112-6.976 3.248-14.24 5.84-21.712 7.472l159.712 356 1.232 0.16c21.664 2.944 36.848 22.88 33.952 44.544-2.944 21.664-22.8 36.896-44.528 33.968l-200.448-27.024c-13.552 13.456-31.792 21.056-50.896 21.056h-30.080c-39.936 0-72.304-32.4-72.304-72.336v-216.304c0-26.4 13.056-51.056 34.928-65.888 21.824-14.848 49.584-17.856 74.112-8.112l56.928 22.656 53.52 120.112-46.592-16.688 1.52 138.416c124.144 16.768 97.648 13.168 133.2 17.968l-157.328-350.592c-0.752-0.224-1.552-0.432-2.32-0.688-14.256-4.592-27.616-11.952-38.4-22.768-17.168-17.104-44.992-17.152-62.144 0-12.352 12.32-32.448 12.336-44.784-0.032-12.368-12.352-12.368-32.448 0-44.832 20.912-20.896 48.384-31.344 75.856-31.344 27.424 0 54.944 10.48 75.904 31.376 12.944 13.024 35.84 15.76 54.848-2.416 38.048-35.648 101.104-35.952 140.688 3.632 14.672 14.656 40.112 14.656 54.8 0 38.336-38.336 106.064-38.368 144.416 0.048 15.104 15.104 39.68 15.072 54.848-0.048 38.528-38.56 105.808-38.592 144.432 0.016 14.656 14.656 40.112 14.656 54.832 0 38.496-38.56 105.728-38.608 144.336-0.016 12.4 12.384 12.4 32.432 0.032 44.848z" />
<glyph unicode="&#xe912;" glyph-name="uniE912" data-tags="uniE912" d="M262.816 288.928c-46 0-83.312-37.344-83.312-83.392s37.296-83.376 83.312-83.376c46 0 83.296 37.328 83.296 83.376s-37.296 83.392-83.296 83.392zM937.36 35.472l-96.784 173.296 65.728 120.192c1.968 3.584 3.136 7.328 3.936 11.12 1.776 2.64 3.088 5.664 3.088 9.104v94.864c0 9.104-5.552 21.328-12.352 27.344l-155.728 138.496c-6.848 6.016-20.704 3.248-25.872-4.24l-4.368-8.048c-2.624-2.176-5.040-4.672-6.992-7.696l-87.6-138.848-101.168-75.984c-7.952-5.936-12.288-14.8-12.944-23.968l-28.432 21.12c-5.52 4.096-12.144 6.352-19.008 6.496l-118.272 2.256 30.464 96.4 97.712-19.28c2.688-0.528 5.344-0.784 8-0.784 17.84 0 34.080 11.664 39.408 29.344l38.736 129.072c13.152-28.736 41.984-48.752 75.6-48.752 45.984 0 83.312 37.28 83.312 83.36 0 46.096-37.328 83.392-83.312 83.392-16.208 0-31.232-4.816-44.032-12.848l5.52 18.272c6.528 21.792-5.808 44.768-27.6 51.312-21.808 6.576-44.72-5.824-51.248-27.6l-65.024-216.672-90.336 17.824 82.336 102.928c11.904 14.88 12.048 36 0.336 51.040l-150.064 192.96c-13.952 17.968-39.808 21.2-57.76 7.216-17.92-13.984-21.152-39.856-7.184-57.792l130.096-167.312-104.448-130.544c-4.4-5.504-6.992-11.824-8.176-18.304l-26.24-68.432c-3.824-8.256-8.336-22.176-10.096-31.104l-3.344-26.56-42.608 60.144 12.704 131.776c1.744 18.128-11.504 34.224-29.6 35.984-18.048 1.616-34.192-11.52-35.936-29.648l-13.888-144.032c-0.768-7.888 1.344-15.76 5.904-22.24l84.192-118.8c3.664-5.168 8.624-8.8 14.080-11.088 2.192-1.488 4.704-2.576 7.792-2.624l4.064-0.048c0.32-0.016 0.624-0.128 0.944-0.128 0.208 0 0.4 0.096 0.592 0.112l78.72-0.992c1.648-0.304 3.296-0.576 5.024-0.624l151.84-2.896 97.536-72.528c0.816-0.608 1.76-0.816 2.608-1.344 6.144-5.6 14.032-8.592 22.112-8.592 6.384 0 12.832 1.84 18.496 5.728l124.928 85.2c6.656 4.528 11.424 11.36 13.376 19.2l22.672 90.208c3.728-4.064 6-7.216 5.696-8.768l23.568-67.040-103.472-80.864c-7.664-5.968-12.976-14.496-14.976-24.032l-47.296-226.368c-4.656-22.304 9.616-44.096 31.872-48.768 2.832-0.592 5.664-0.896 8.464-0.896 19.056 0 36.176 13.376 40.24 32.768l44.208 211.664 26.224 20.496-5.856-10.752c-6.816-12.416-6.752-27.488 0.16-39.856l107.888-193.184c7.552-13.504 21.552-21.088 35.968-21.088 6.8 0 13.68 1.664 20.048 5.216 19.824 11.104 26.912 36.208 15.824 56.064zM665.328 368.912l-95.44-65.088-19.232 14.304c2.832 1.072 5.6 2.336 8.128 4.256l105.984 79.632c3.2 2.4 5.936 5.36 8.096 8.752l4.96 7.856-12.496-49.712z" />
<glyph unicode="&#xe913;" glyph-name="uniE913" data-tags="uniE913" d="M514.032 614.688c0.144 0 0.304 0 0.448 0s0.32 0 0.464 0c76.096 0 137.744 61.68 137.744 137.776s-61.664 137.792-137.744 137.792c-0.16 0-0.32-0.016-0.464-0.016s-0.304 0.016-0.448 0.016c-76.096 0-137.76-61.696-137.76-137.792s61.664-137.776 137.76-137.776zM860.048 332.864l-155.36 112.976-49.12 120c-9.36 22.816-31.616 36.432-54.896 35.92l-0.016 0.048-177.312-0.048c-23.28 0.512-45.552-13.104-54.912-35.92l-49.12-120-155.344-112.976c-25.888-18.816-31.616-55.056-12.8-80.944 11.344-15.6 29.008-23.872 46.912-23.872 11.824 0 23.744 3.6 34.032 11.088l167.968 122.128-4.288-44.224-158.816-161.008c-22.048-22.928-28.256-56.8-15.792-86.064 12.464-29.248 41.184-48.256 73.008-48.256h75.904c-19.568 17.712-32.032 44.128-32.032 73.648 0 53.2 40.432 96.48 90.16 96.48 0 0 58.144 0 86.464 0s50.8-23.152 50.8-23.152h-137.264c-37.776 0-68.512-32.896-68.512-73.328 0-40.416 30.736-73.328 68.512-73.328h132.944c1.488 0.112 3.008 0.128 4.464 0.304h160.704c31.792 0 60.512 18.992 72.992 48.272 12.464 29.248 6.256 63.12-15.776 86.064l-155.408 161.184-4.208 43.408 167.968-122.128c10.288-7.504 22.224-11.088 34.032-11.088 17.904 0 35.568 8.288 46.912 23.872 18.8 25.872 13.072 62.128-12.8 80.944z" />
<glyph unicode="&#xe914;" glyph-name="uniE914" data-tags="uniE914" d="M977.936 101.936l-80.864 272.432c-1.824 6.128-4.464 16.192-5.904 22.416l-80.336 349.024c-2.208 9.6-10.848 19.408-20.080 22.816l-44.24 16.32c-2.448 0.912-5.040 1.36-7.696 1.36-9.008 0-17.2-5.2-20.912-13.232l-161.008-350.272c-2.752-5.968-2.512-12.224 0.64-17.136 3.152-4.944 8.736-7.744 15.296-7.744h138.352c5.888 0 11.376 2.32 15.424 6.528 4.064 4.224 6.192 9.776 5.968 15.664l-3.488 94.064 105.792-421.12c2.672-10.672 13.008-18.72 24.048-18.72 0.24 0 0.448 0.016 0.688 0.032l100.576 3.056c6.224 0.208 11.744 3.008 15.152 7.728 3.424 4.688 4.352 10.816 2.592 16.784zM291.424 420.096c-0.224-5.872 1.888-11.44 5.952-15.664s9.536-6.528 15.424-6.528h138.352c6.576 0 12.16 2.816 15.312 7.744 3.136 4.912 3.392 11.152 0.64 17.136l-161.040 350.304c-3.696 8.032-11.888 13.232-20.896 13.232-2.656 0-5.248-0.464-7.712-1.36l-44.224-16.32c-9.232-3.408-17.872-13.216-20.096-22.816l-80.304-349.024c-1.44-6.24-4.096-16.304-5.904-22.416l-80.864-272.448c-1.776-5.952-0.848-12.096 2.56-16.8 3.424-4.72 8.944-7.536 15.152-7.728l100.576-3.056c0.24-0.016 0.464-0.016 0.688-0.016 11.024 0 21.376 8.032 24.064 18.704l105.776 421.12-3.456-94.064zM284.32 323.216l-2-18.752c-0.624-5.904 1.232-11.744 5.088-16.048 3.872-4.304 9.488-6.768 15.424-6.768h418.336c5.936 0 11.568 2.464 15.424 6.768 3.872 4.304 5.728 10.144 5.088 16.048l-2 18.752c-1.232 11.632-11.36 20.72-23.024 20.72h-409.296c-11.696 0-21.808-9.088-23.040-20.72zM757.552 160.688c-0.976 6.368-2.336 16.784-3.008 23.152l-2.464 23.12c-1.248 11.632-11.376 20.72-23.040 20.72h-434.080c-11.664 0-21.792-9.088-23.024-20.72l-2.464-23.12c-0.688-6.368-2.032-16.784-3.008-23.152l-9.712-63.536c-0.928-5.936 0.736-11.872 4.496-16.288 3.776-4.384 9.392-6.912 15.424-6.912h470.72c6.016 0 11.648 2.512 15.408 6.912 3.776 4.4 5.424 10.336 4.512 16.288l-9.76 63.536zM498 489.584c4.256-9.232 11.2-10.24 14-10.24 2.784 0 9.728 1.008 13.984 10.24l138.64 301.552c2.448 5.344 2.592 11.472 0.368 16.8-2.208 5.344-6.64 9.568-12.16 11.616l-1.008 0.368c-4.768 1.744-9.856 2.128-13.28 2.128-6.016 0-11.776-1.088-16.256-3.072l-103.44-45.92c-1.248-0.544-3.696-1.136-6.864-1.136s-5.632 0.592-6.864 1.136l-103.44 45.92c-4.464 1.984-10.256 3.072-16.256 3.072-3.44 0-8.512-0.368-13.28-2.128l-1.008-0.4c-5.52-2.032-9.936-6.256-12.16-11.6-2.224-5.328-2.080-11.456 0.368-16.8l138.656-301.536z" />
<glyph unicode="&#xe915;" glyph-name="uniE915" data-tags="uniE915" d="M76.928 358.512c-18.272 0-33.072-14.784-33.072-33.056s14.8-33.072 33.072-33.072h216.512l-59.696 66.144h-156.816zM972.944 325.392l-29.408 153.184c-10.032 52.192-46.784 92.336-94.128 108.672l-42.352 83.856c-6.24 12.288-19.152 19.536-33.072 17.952-13.68-1.488-25.008-11.264-28.48-24.608l-24.256-94.032c-31.84-21.664-41.712-43.088-61.008-76.144 23.728-9.472 40.208-29.968 45.136-53.856 26.336 45.152 40.464 84.32 89.872 88.64 40.016 3.328 75.76-23.584 83.328-62.96l29.376-153.184c0.848-4.4-1.872-8.592-6.304-9.648-3.12-0.576-6.24 0.432-8.24 2.928l-58.496 72.72c-11.456 14.176-32.304 16.528-46.512 5.024-14.24-11.456-16.464-32.256-5.024-46.48 55.040-68.4 76.528-111.68 133.168-98.592 39.2 9.008 63.968 47.024 56.4 86.528zM612.32 354l-29.008 8.288-2.192-3.76h-80.032l21.616-23.92c11.008-12.224 18.496-26.784 22.4-42.224h55.008c11.744 0 22.624 6.272 28.576 16.4l26.736 45.888c-13.536-4.336-28.416-4.88-43.104-0.672zM609.792 698.992c30.192 29.44 30.768 77.792 1.36 107.952-29.44 30.192-77.696 30.816-107.872 1.392-30.16-29.408-30.832-77.696-1.376-107.856 29.328-30.24 77.712-30.848 107.888-1.488zM644.224 465.248l-110.368 31.648-31.84 103.136 18.608-30.448c9.184 23.328 4.672 50.912-13.968 70.048l-19.568 20.080c-12.176 12.496-28.768 19.648-46.208 19.872s-34.24-6.496-46.72-18.64l-133.136-129.712c-35.504-34.512-37.136-92.352-1.68-128.784 32.24-33.072 6.72-5.664 134.832-147.536l-36.592-135.264c-7.136-26.448 8.48-53.664 34.944-60.848 26.32-7.056 53.648 8.336 60.848 34.96l43.632 161.392c4.384 16.288 0.224 33.68-11.072 46.192l-108.736 120.384c42.080 40.944 31.472 30.64 51.152 49.824l-5.296 104.144 38.432-124.528c4.096-13.344 14.688-23.696 28.096-27.536l131.872-37.824c3.808-1.088 7.664-1.616 11.456-1.616 17.952 0 34.48 11.808 39.68 29.936 6.24 21.952-6.448 44.864-28.368 51.12z" />
<glyph unicode="&#xe916;" glyph-name="uniE916" data-tags="uniE916" d="M656.24 56.048h-561.472v52.336c10.224-8.112 23.264-13.024 37.312-13.024h485.392l38.768-39.312zM337.744 824.752c-30.096 0-54.544-24.448-54.544-54.544 0-18.704 9.392-35.216 23.808-45.040 6.192 17.136 16.24 32.912 29.552 46.224 13.312 13.328 29.104 23.344 46.24 29.552-9.856 14.416-26.352 23.808-45.056 23.808zM322.144 681.84c0-57.456 46.608-103.952 103.968-103.952s103.984 46.592 103.984 103.952c0 57.456-46.608 103.984-103.984 103.984-12.224 0-23.904-2.096-34.752-5.936-29.456-10.496-52.896-33.84-63.296-63.296-3.824-10.928-5.92-22.608-5.92-34.752zM265.68 538.4c-24.352-54-77.424-191.984-92.016-226.72h181.136c4.016 9.856 8.48 19.424 13.408 28.448 17.056 31.824 70.336 47.616 57.648 92.016-0.080 0.368-0.272 0.736-0.352 1.2l47.696-45.248c3.568-3.376 7.856-6.112 12.4-7.84l130.432-49.776c4.368-1.664 8.944-2.464 13.392-2.464 15.152 0 29.376 9.2 35.024 24.176 7.392 19.328-2.288 41.024-21.696 48.416l-115.28 44.048c-5.376 2.096-10.32 5.2-14.528 9.12 0 0-101.504 96.304-101.6 96.384-4.288 4.112-9.856 6.752-15.68 8.656-1.36 0.464-2.816 0.912-4.288 1.296-1.552 0.448-3.184 0.912-4.832 1.28-25.344 6.736-53.536 12.48-79.616 10.208-8.576-0.72-17.968-2.928-25.264-7.952-8.4-6-11.872-16.224-15.984-25.248zM132.064 118.16h494.88l47.44-48.064c4.448-4.56 9.84-8.128 15.584-10.48 5.664-2.288 11.68-3.568 17.888-3.568h202.112c26.272 0 47.424 21.52 47.056 47.776-0.448 25.808-21.984 46.256-47.776 46.256h-181.68l-123.504 125.296c-9.568 9.76-15.232 13.76-32.368 13.76-29.552 0-439.616-0.272-439.616-0.272-20.624 0-37.312-16.688-37.312-37.296v-96.112c0-20.608 16.688-37.296 37.296-37.296zM889.168 290.16c0 59.552-48.336 107.872-107.888 107.872s-107.888-48.336-107.888-107.872c0-59.568 48.336-107.888 107.888-107.888s107.888 48.224 107.888 107.888z" />
<glyph unicode="&#xe917;" glyph-name="uniE917" data-tags="uniE917" d="M936.144 630.24l-222.24 10.080c-1.44 0.048-2.96 0.128-4.416 0-113.696-9.952-161.648-30.384-179.792-31.36l-108.896-4.528-51.12 95.488c-0.176 0.32-0.368 0.608-0.544 0.912 3.392 2.464 6.768 4.912 10.24 7.424 287.024 208.24 305.984 227.488 302.752 231.92-3.216 4.448-24.768-5.68-314.48-215.856-4.752-3.456-9.424-6.832-14.016-10.176-6.8 2.672-14.56 2.976-21.968 0.272-13.232-4.816-21.168-17.664-20.336-31.040-235.504-171.536-249.456-186.864-246.448-190.992 2.992-4.096 23.808 5.824 252.4 170.928l43.136-118.192c4.88-13.344 17.44-23.168 32.56-23.824l129.632-5.632 34.048-186.768-48.848-135.152-84.416-108c-14.752-18.992-12.672-46.56 5.488-62.928 19.008-17.136 48.352-15.648 65.536 3.36l98.672 109.168c2.704 3.024 5.12 6.656 6.88 10.56l1.488 3.376 64.528 145.136c2.080-2.752 4.4-5.36 7.008-7.792l100.528-93.168-42.848-139.76c-6.896-22.768 4.64-47.616 27.168-56.608 23.792-9.488 50.8 2.096 60.336 25.856l67.664 169.168c7.12 17.872 3.664 39.056-10.608 53.776l-105.296 108.608-34.544 189.456 200.752 9.104c19.696 0.96 35.984 16.768 36.896 36.832 0.944 21.312-15.536 39.376-36.896 40.352zM625.488 820.032c-49.040 16.368-102.064-10.064-118.448-59.008-16.4-48.96 10.048-101.92 59.072-118.288 49.040-16.368 102.080 10.048 118.448 59.008 16.4 48.976-10.064 101.92-59.072 118.288z" />
<glyph unicode="&#xe918;" glyph-name="uniE918" data-tags="uniE918" d="M802.48 585.984v43.328c-8.688 168.976-156.16 303.296-320.976 303.296h-43.376c-169.152 0-312.272-134.32-320.944-303.296l-8.672-43.328c-4.336-47.664 4.336-90.992 17.344-130h659.28c13.008 39.008 21.696 82.336 17.344 130zM477.168 196.032h-43.376c-26 0-52.032 4.336-73.728 8.688l-12.992-182c0-26 17.344-43.312 43.376-43.312h130.096c26.032 0 43.376 17.312 43.376 43.312l-13.008 182c-21.68-4.352-47.712-8.688-73.744-8.688zM143.216 412.688c52.048-104 160.48-173.312 290.592-173.312h43.376c130.128 0 238.56 69.312 290.624 173.312h-624.592zM845.856 304.336c-47.904 0-86.752-38.784-86.752-86.656 0-47.84 38.848-86.624 86.752-86.624s86.752 38.784 86.752 86.624c0 47.888-38.848 86.656-86.752 86.656z" />
<glyph unicode="&#xe919;" glyph-name="uniE919" data-tags="uniE919" d="M763.28 220.432c-61.664 0-111.632-49.984-111.632-111.664 0-61.664 49.968-111.664 111.632-111.664 61.632 0 111.6 50 111.6 111.664 0 61.68-49.968 111.664-111.6 111.664zM638.688 387.584h85.472c17.536 0 33.856 8.992 43.248 23.808 9.392 14.848 10.528 33.44 3.024 49.312l-109.28 231.216c-12.096 25.584-42.592 36.528-68.176 24.416-25.568-12.112-36.496-42.64-24.384-68.224l74.704-158.080h-87.44v357.632c0 28.304-22.928 51.232-51.2 51.232s-51.216-22.928-51.216-51.232v-420.096c-11.632-13.584-19.056-30.8-18.864-51.344l2-259.984-244.288-0.816c-23.92-0.080-43.264-19.552-43.184-43.504 0.080-23.888 19.456-43.2 43.328-43.2 0.048 0 0.096 0 0.144 0l291.12 0.992c10-5.712 20.672-9.936 31.136-12.416 0 0 11.776-3.408 24.288-3.024 11.968 0.368 25.248 3.264 25.248 3.264l0.336 0.064c37.456 9.52 77.184 40.464 76.768 86.384l-2.112 274.032c-0.016 3.264-0.272 6.448-0.672 9.568z" />
<glyph unicode="&#xe91a;" glyph-name="uniE91A" data-tags="uniE91A" d="M764.736 377.52c81.872 0 148.272 66.4 148.272 148.32s-66.384 148.336-148.272 148.336c-81.888 0-148.288-66.416-148.288-148.336s66.4-148.32 148.288-148.32zM445.328 498.144l-185.664-133.024c8.032 1.648 16.88 2.656 26.736 2.656 44.496 0 69.152-19.76 85.488-32.832 11.968-9.584 16-12.8 28.464-12.8 12.48 0 16.512 3.216 28.464 12.8 16.32 13.056 40.992 32.832 85.488 32.832s69.152-19.76 85.488-32.832c11.968-9.584 15.984-12.8 28.464-12.8 12.464 0 16.496 3.216 28.464 12.8 5.44 4.352 11.824 9.456 19.552 14.32l-129.824 219.44-177.376 132.432-202.672-57.504-25.488-116.96 210.752 41.408 93.664-69.936zM882.336 298.944c-11.952-9.584-15.984-12.816-28.464-12.816s-16.512 3.232-28.48 12.816c-16.32 13.056-40.992 32.832-85.488 32.832s-69.184-19.776-85.504-32.832c-11.968-9.584-16-12.816-28.464-12.816-12.48 0-16.496 3.232-28.464 12.816-16.336 13.056-41.008 32.832-85.488 32.832s-69.168-19.76-85.472-32.832c-11.968-9.584-16-12.816-28.464-12.816-12.48 0-16.512 3.232-28.464 12.816-16.336 13.056-40.992 32.832-85.488 32.832s-69.168-19.76-85.488-32.832c-11.968-9.584-16-12.816-28.464-12.816s-16.512 3.232-28.464 12.816c-16.32 13.056-40.992 32.832-85.488 32.832v-91.264c12.48 0 16.512-3.216 28.464-12.8 16.336-13.056 40.992-32.832 85.488-32.832s69.168 19.76 85.488 32.816c11.968 9.6 16 12.816 28.464 12.816s16.496-3.216 28.464-12.8c16.32-13.056 40.992-32.832 85.488-32.832s69.152 19.76 85.488 32.832c11.968 9.584 15.984 12.8 28.464 12.8s16.496-3.216 28.464-12.816c16.32-13.040 40.992-32.816 85.488-32.816s69.152 19.76 85.488 32.832c11.968 9.584 16 12.8 28.464 12.8 12.48 0 16.496-3.216 28.48-12.816 16.32-13.056 40.992-32.816 85.488-32.816s69.168 19.744 85.504 32.816c11.952 9.6 15.984 12.816 28.448 12.816v91.264c-44.512-0.016-69.184-19.776-85.488-32.832z" />
<glyph unicode="&#xe91b;" glyph-name="uniE91B" data-tags="uniE91B" d="M296.144 501.424c-77.888 0-141.024-62.992-141.024-140.672 0-77.712 63.136-140.688 141.024-140.688 77.872 0 141.008 62.976 141.008 140.688 0 77.68-63.136 140.672-141.008 140.672zM846.432 272.096l-2.432 1.904 0.080 394.352c15.168 42.224 1.104 93.728-28.624 128.56-6.864 8.048-14.608 15.392-23.040 21.856-39.504 30.224-99.424 43.68-144.224 5.616l-237.008-201.376c-43.968-37.392-40.576-100.976-18.832-144.224 0 0 6.256-14.16 16.752-25.936 10.064-11.216 23.648-21.744 23.648-21.744l0.336-0.288c20.304-14.624 46.512-25.184 73.184-27.024l208.32-166.336-0.032-158.064c0-35.664 28.976-64.528 64.704-64.528s64.704 28.88 64.72 64.528l0.016 105.664c4.016 2.88 7.744 6.256 10.992 10.256 18.864 23.536 15.056 57.904-8.56 76.784zM714.608 377.344l-99.696 79.632 99.728 84.704-0.032-164.336z" />
<glyph unicode="&#xe91c;" glyph-name="uniE91C" data-tags="uniE91C" d="M246.032 601.808c-41.52 0-75.168-33.808-75.168-75.52s33.664-75.536 75.168-75.536 75.168 33.808 75.168 75.536c0 41.712-33.648 75.52-75.168 75.52zM387.312 568.88c39.584 29.024 78.624 49.12 128.384 47.808 43.392-1.152 81.92-31.856 112.144-61.488 1.664-21.808 0.576-43.584-3.504-65.024h69.28c1.904 13.152-8.88 76.416-1.312 83.744 9.472-10.064 49.648-48.176 58.864-58.464-4.080-8.528-8.368-16.944-12.784-25.28h77.328c2.464 5.248 4.912 10.512 7.264 15.84 7.648 17.344 1.008 33.12-10.592 42.432-1.664 3.056-3.6 6.032-6.016 8.736-23.376 26.256-46.88 52.336-72.64 76.304-0.416 0.4-0.896 0.736-1.296 1.104-1.872 2.448-3.888 4.88-6.192 7.248-46.336 47.328-102.848 86.304-167.904 100.112 9.6 10.176 19.168 20.368 28.768 30.544 30.704 32.56-19.52 80.32-50.192 47.76-23.808-25.28-47.616-50.544-71.424-75.824-18.944-2.896-37.44-7.76-55.456-14.304-0.96 34.528-1.872 69.024-2.8 103.552-1.216 44.752-70.336 42.864-69.104-1.92 1.232-45.168 2.464-90.336 3.696-135.488-8.032-5.088-15.952-10.464-23.648-16.144-67.536-49.456 0.96-161.28 69.136-111.248zM687.968 410.032c-26.688-35.504 24.112-82.624 50.96-46.944 19.456 25.936 37.040 52.816 52.832 80.784h-80.512c-7.424-11.504-15.040-22.848-23.28-33.84zM610.464 443.888c-0.224-0.464-0.368-0.944-0.56-1.376-17.664-40.816 42.912-74.48 60.64-33.408 4.992 11.536 9.136 23.136 12.688 34.784h-72.768zM62.72 479.632v293.264h-23.040v-803.92h23.040v487.504h118.384c-6.016 6.848-10.976 14.624-14.64 23.152h-103.744zM961.28 772.896v-293.264h-635.808c-3.712-8.512-8.704-16.32-14.784-23.168h650.624v-487.52h23.040v803.952h-23.072z" />
<glyph unicode="&#xe91d;" glyph-name="uniE91D" data-tags="uniE91D" d="M159.984 725.008l204.816-77.728-191.248-163.536c-12.544-10.704-15.488-29.328-6.208-43.488 10.064-15.376 30.672-19.664 46.048-9.616l156.8 102.656c0 0-28.56-87.136-30.864-93.024-10.48-26.896 2.816-57.2 29.712-67.68l191.152-74.528 116.080-145.36c13.888-17.328 39.136-20.752 57.104-7.392 18.352 13.664 22.176 39.616 8.512 57.968l-105.824 142.256 32.56-3.856 146.24-86.128c19.072-11.2 43.856-5.472 55.904 13.328 12.352 19.264 6.736 44.896-12.512 57.232l-151.504 97.136c-4.272 2.704-9.28 4.768-14.56 5.728l-2.272 0.4-146 26.496c0 0 67.984 200.64-11.040 237.216l-345.616 110.144c-20.8 6.592-43.488-4.128-51.328-24.768-8.112-21.408 2.656-45.328 24.048-53.456zM530.864 708.976c11.264-7.584 24.032-12.832 37.344-15.44l0.128-0.016c33.008-6.4 67.696 4.224 91.504 27.952 24.144 24.080 34.736 59.696 27.696 93.072-6.864 32.496-29.824 60.336-60.512 73.088-31.408 13.056-68.016 9.44-96.224-9.584-28.192-19.008-45.296-51.568-44.976-85.584 0.32-33.216 17.488-64.944 45.040-83.488zM979.744 47.952c0 6.336-5.136 11.504-11.488 11.504-9.936 0-14.368 1.552-20.032 3.536-6.976 2.448-14.848 5.216-29.84 5.216s-22.88-2.768-29.84-5.216c-5.632-1.984-10.080-3.536-20-3.536-9.936 0-14.368 1.552-20.032 3.536-6.976 2.448-14.848 5.216-29.824 5.216-15.008 0-22.88-2.768-29.84-5.216-5.648-1.984-10.080-3.536-20.016-3.536-9.92 0-14.368 1.552-20.016 3.536-6.96 2.448-14.832 5.216-29.824 5.216s-22.88-2.768-29.84-5.216c-5.632-1.984-10.080-3.536-20-3.536-9.936 0-14.368 1.568-20.032 3.536-6.944 2.448-14.832 5.216-29.808 5.216-15.008 0-22.88-2.768-29.84-5.216-5.632-1.968-10.080-3.536-20-3.536-9.936 0-14.368 1.568-20.032 3.536-6.944 2.448-14.816 5.216-29.808 5.216-15.008 0-22.88-2.768-29.84-5.216-5.632-1.968-10.080-3.536-20-3.536s-14.368 1.568-20.016 3.536c-6.944 2.448-14.832 5.216-29.824 5.216s-22.864-2.768-29.84-5.216c-5.632-1.968-10.064-3.536-20-3.536-9.92 0-14.368 1.568-20.016 3.536-6.96 2.448-14.832 5.216-29.824 5.216s-22.88-2.768-29.84-5.216c-5.632-1.968-10.080-3.536-20-3.536-9.936 0-14.368 1.568-20.016 3.536-6.96 2.448-14.832 5.216-29.824 5.216s-22.864-2.768-29.84-5.216c-5.632-1.968-10.064-3.536-20-3.536s-14.368 1.568-20.016 3.536c-3.632 1.28-7.824 2.768-13.392 3.808v1.696c-0.064 6.352-5.216 11.504-11.568 11.504h-54.32c-6.352 0-11.488-5.152-11.488-11.504v-59.584c0-6.352 5.136-11.504 11.488-11.504h896.832c6.336 0 11.488 5.136 11.488 11.504l-0.032 39.040z" />
<glyph unicode="&#xe91e;" glyph-name="uniE91E" data-tags="uniE91E" d="M913.664 854.176c0 0-297.088 162.48-635.408-176.24-341.52-341.856-176.16-636.096-176.16-636.096s297.040-162.496 635.472 176.224c362.96 363.28 176.096 636.112 176.096 636.112zM634.944 544.528l65.936-65.856-27.504-27.6-65.904 65.872-35.36-35.424 65.696-65.84-27.472-27.68-65.888 65.936-38.144-38.144 62.944-62.8-27.664-27.616-62.752 62.88-39.84-39.856 62.752-62.816-27.552-27.616-62.864 62.832-269.28-269.728-27.68 27.616 269.52 269.712-75.056 75.088 27.664 27.584 74.848-75.072 39.92 39.84-75.024 75.12 27.536 27.568 75.072-75.056 38 38.080-71.856 72.080 27.504 27.568 71.968-72.032 35.36 35.44-71.888 72.048 27.552 27.6 72-72.032 269.52 269.664 27.568-27.552-269.632-269.808z" />
<glyph unicode="&#xe91f;" glyph-name="uniE91F" data-tags="uniE91F" d="M745.408 435.776c-6.768-7.856-5.92-19.696 1.888-26.528 3.536-3.088 7.872-4.592 12.24-4.592 5.216 0 10.432 2.192 14.128 6.48 2.88 3.376 70.304 83.152 19.184 147.936-28.368 35.952-7.424 56.848-2.848 60.736 7.952 6.496 9.232 18.24 2.848 26.32-6.416 8.144-18.24 9.456-26.272 2.992-19.632-15.712-45.456-59.648-3.008-113.472 31.84-40.32-17.712-99.296-18.16-99.872zM908.928 435.808c-6.768-7.888-5.92-19.728 1.888-26.56 3.536-3.088 7.872-4.592 12.24-4.592 5.216 0 10.432 2.192 14.128 6.48 2.88 3.376 70.304 83.152 19.184 147.936-28.368 35.952-7.424 56.848-2.848 60.736 7.952 6.496 9.232 18.24 2.848 26.32-6.416 8.144-18.24 9.456-26.272 2.992-19.616-15.712-45.456-59.648-3.008-113.472 31.824-40.32-17.696-99.296-18.16-99.84zM232.32 411.152c3.68-4.32 8.928-6.496 14.144-6.496 4.336 0 8.672 1.536 12.224 4.624 7.808 6.8 8.656 18.704 1.904 26.528-0.512 0.592-50 59.568-18.192 99.904 42.416 53.792 16.592 97.712-2.992 113.44-8.064 6.464-19.84 5.136-26.272-2.992-6.384-8.080-5.088-19.824 2.784-26.32 4.608-3.904 25.52-24.8-2.784-60.736-51.104-64.816 16.272-144.592 19.184-147.952zM68.8 411.136c3.68-4.304 8.928-6.48 14.144-6.48 4.336 0 8.672 1.536 12.224 4.592 7.808 6.832 8.656 18.672 1.904 26.56-0.496 0.56-50 59.536-18.192 99.872 42.416 53.824 16.576 97.744-2.992 113.472-8.064 6.464-19.84 5.136-26.288-2.992-6.384-8.080-5.088-19.824 2.8-26.32 4.608-3.904 25.52-24.8-2.8-60.736-51.104-64.816 16.288-144.592 19.2-147.968zM509.216 630.384c52.848 0 95.664 43.152 95.664 96.368 0 53.232-42.832 96.368-95.664 96.368s-95.68-43.136-95.68-96.368c0-53.2 42.832-96.368 95.68-96.368zM940.976 293.696h-213.616c8.656 10.784 11.136 25.936 4.976 39.344l-100.432 218.816c-1.712 3.712-4.064 6.832-6.64 9.68-10.256 36.592-46.624 53.504-90.272 53.504h-51.584c-42.192 0-77.44-15.92-89.008-50.032-4.208-3.472-7.776-7.808-10.24-13.152l-100.432-218.816c-6.16-13.408-3.68-28.576 4.976-39.344h-208.944c-30.96 0-56.064-24.72-56.064-55.248 0-30.496 25.12-55.2 56.064-55.2h282.272c20.64 0 37.376 16.848 37.376 37.632v71.136c0 0.576 0.144 1.104 0.144 1.68-0.112 31.088 25.008 56.368 55.92 56.368 25.616 0 47.056-17.552 53.728-41.232 6.64 23.68 28.080 41.232 53.728 41.232 30.864 0 55.968-25.28 56.032-56.368-0.144-0.576 0.032-1.104 0.032-1.68v-71.136c0-20.784 16.72-37.632 37.376-37.632h284.592c30.992 0 56.064 24.704 56.064 55.2 0 30.544-25.072 55.248-56.048 55.248zM346.48 293.696c1.952 2.352 3.728 4.88 5.072 7.76l38.4 83.68v-77.664c0-4.704 0.512-9.296 1.2-13.776h-44.672zM627.232 293.696c0.672 4.48 1.168 9.072 1.168 13.776v72.544l36.080-78.56c1.312-2.896 3.152-5.408 5.040-7.76h-42.288zM455.488 331.152c-20.672 0-37.376-16.864-37.376-37.664v-161.12c0-20.768 16.736-37.648 37.376-37.648s37.376 16.88 37.376 37.648v161.12c0.016 20.816-16.736 37.664-37.376 37.664zM562.944 331.152c-20.656 0-37.376-16.864-37.376-37.664v-161.12c0-20.768 16.736-37.648 37.376-37.648s37.376 16.88 37.376 37.648v161.12c0 20.816-16.736 37.664-37.376 37.664z" />
<glyph unicode="&#xe920;" glyph-name="uniE920" data-tags="uniE920" d="M555.984 540.464c0.16 2.976 0.256 5.952 0.256 8.912 0 101.76-93.872 187.728-204.992 187.728-111.104 0-204.992-85.968-204.992-187.728 0-2.96 0.096-5.936 0.256-8.912-40.912-17.648-69.536-58.336-69.536-105.728v-218.72c0-63.6 51.52-115.12 115.072-115.12h318.368c63.568 0 115.072 51.536 115.072 115.12v218.72c0.048 47.392-28.608 88.080-69.504 105.728zM351.264 668.032c72.224 0 135.6-55.168 135.92-118.192h-271.856c0.32 63.040 63.696 118.192 135.936 118.192zM293.424 245.712l-27.408 48.672-9.056-9.824v-38.848h-51.232v184.816h51.232v-89.296l32.608 38.848h57.952l-47.856-50.752 55.36-83.616h-61.6zM499.648 263.072c0-4.496-0.272-9.184-0.784-14.112-0.528-4.928-1.648-9.728-3.36-14.496-1.728-4.752-4.128-9.264-7.248-13.584-3.104-4.32-7.248-8.128-12.416-11.392-5.168-3.28-11.504-5.856-19.008-7.776-7.488-1.888-16.512-2.848-27.024-2.848-7.952 0-15.824 0.672-23.68 1.936-7.856 1.312-15.008 3.6-21.472 6.88-6.464 3.264-11.952 7.792-16.432 13.584s-7.328 13.248-8.528 22.368h50.704c0.336-0.656 0.768-1.408 1.296-2.176 0.528-0.784 1.040-1.6 1.568-2.48 1.552-2.384 3.616-4.656 6.192-6.704 2.608-2.080 5.52-3.104 8.8-3.104 4.128 0 7.504 1.056 10.080 3.216 2.592 2.192 4.656 4.848 6.208 8.032 1.568 3.2 2.592 6.544 3.104 10.096 0.528 3.552 0.784 6.688 0.784 9.456v12.416h-0.512c-4.144-6.032-9.248-10.672-15.28-13.856-6.032-3.168-12.928-4.768-20.688-4.768-9.84 0-18.368 1.696-25.616 5.152-7.248 3.472-13.248 8.16-17.984 14.112-4.736 5.968-8.24 12.928-10.464 20.848-2.256 7.936-3.376 16.368-3.376 25.376 0 8.784 1.264 17.056 3.76 24.832s6.16 14.528 10.992 20.32c4.832 5.792 10.88 10.4 18.112 13.872 7.248 3.424 15.68 5.152 25.344 5.152 7.584 0 14.624-1.552 21.088-4.656s11.168-8.128 14.112-15.008h0.512v16.336h51.232v-117.024zM420.080 346.16c-3.616 0-6.816-0.752-9.568-2.208-2.752-1.472-5.040-3.408-6.848-5.808-1.808-2.416-3.152-5.232-4-8.4-0.864-3.216-1.312-6.608-1.312-10.224 0-3.808 0.336-7.648 1.040-11.536 0.688-3.888 1.904-7.424 3.616-10.624 1.728-3.184 4.064-5.76 6.992-7.76 2.928-1.968 6.736-2.96 11.392-2.96 4.64 0 8.4 1.008 11.248 3.072 2.848 2.080 4.96 4.72 6.336 7.904 1.392 3.2 2.288 6.736 2.736 10.592 0.416 3.888 0.64 7.712 0.64 11.536 0 7.424-1.808 13.68-5.424 18.768-3.648 5.104-9.248 7.648-16.848 7.648zM825.28 501.616c-2.688 0-5.040-0.544-7.104-1.648-2.048-1.072-3.728-2.528-5.072-4.32s-2.336-3.872-2.976-6.24c-0.656-2.368-0.96-4.896-0.96-7.584 0-2.816 0.256-5.664 0.752-8.544 0.528-2.88 1.424-5.488 2.688-7.872 1.28-2.368 3.008-4.288 5.184-5.76 2.176-1.488 4.992-2.208 8.448-2.208 3.44 0 6.224 0.768 8.336 2.304 2.112 1.552 3.664 3.488 4.688 5.872 1.024 2.352 1.696 4.976 2.032 7.872 0.32 2.88 0.48 5.712 0.48 8.528 0 5.504-1.344 10.16-4.048 13.92-2.672 3.776-6.816 5.68-12.448 5.68zM927.952 645.712c0.128 2.208 0.192 4.4 0.192 6.608 0 75.504-69.632 139.312-152.016 139.312-82.416 0-152.032-63.792-152.032-139.312 0-2.192 0.080-4.4 0.192-6.608-18.832-8.128-34.16-22.816-43.056-41.232 4.624-15.264 7.328-31.216 7.808-47.648 42.624-24.624 69.392-70.256 69.392-120.288v-116.864h235.744c47.136 0 85.36 38.224 85.36 85.36v162.24c0 35.168-21.248 65.344-51.584 78.432zM776.128 740.384c53.568 0 100.56-40.96 100.8-87.712h-201.616c0.24 46.784 47.232 87.712 100.816 87.712zM733.232 427.12l-20.336 36.080-6.72-7.28v-28.8h-37.984v137.056h37.984v-66.224l24.176 28.784h43.008l-35.504-37.632 41.056-62h-45.68zM886.176 439.984c0-3.328-0.192-6.816-0.576-10.464-0.368-3.648-1.216-7.216-2.48-10.752-1.28-3.52-3.072-6.864-5.392-10.080-2.304-3.2-5.376-6.016-9.2-8.432s-8.528-4.336-14.112-5.744c-5.568-1.408-12.256-2.128-20.048-2.128-5.888 0-11.728 0.464-17.552 1.44-5.824 0.96-11.136 2.656-15.936 5.072-4.8 2.448-8.864 5.792-12.192 10.096-3.328 4.288-5.44 9.824-6.336 16.592h37.616c0.256-0.496 0.576-1.040 0.96-1.632 0.384-0.576 0.768-1.168 1.152-1.808 1.136-1.792 2.688-3.472 4.608-5.008 1.904-1.552 4.080-2.304 6.512-2.304 3.072 0 5.568 0.8 7.488 2.384s3.456 3.584 4.608 5.952 1.92 4.864 2.32 7.488c0.368 2.608 0.56 4.96 0.56 7.008v9.2h-0.368c-3.072-4.464-6.864-7.888-11.328-10.272s-9.6-3.552-15.344-3.552c-7.296 0-13.648 1.28-19.008 3.824-5.36 2.56-9.792 6.064-13.328 10.464-3.52 4.4-6.112 9.568-7.76 15.456-1.664 5.872-2.496 12.16-2.496 18.816 0 6.528 0.944 12.672 2.784 18.416 1.856 5.76 4.576 10.784 8.16 15.072s8.064 7.712 13.44 10.272c5.376 2.56 11.648 3.84 18.8 3.84 5.648 0 10.864-1.152 15.648-3.456 4.816-2.304 8.288-6.016 10.464-11.12h0.368v12.080h38v-86.72z" />
<glyph unicode="&#xe921;" glyph-name="uniE921" data-tags="uniE921" d="M770.048 401.248c3.536-16.176 11.808-32.256 23.888-43.776 1.728-1.648 2.736-2.352 2.736-2.352s-0.096 11.248-0.192 13.008c0.096 4.704 0.368 9.344 0.816 14.064 1.904 21.072 7.2 41.696 22.080 57.408 8.192 8.624 18.288 15.168 27.92 22.16 12.272 8.896 22.272 18.8 29.712 31.968 7.712 13.44 12 28.8 12.368 44.336 0.544 22.896-7.552 47.040-22.848 64.304-1.056 1.264-2.080 2.368-2.896 3.184-1.648 1.632-2.624 2.432-2.624 2.432s0-1.264-0.096-3.536c-0.112-1.072-0.112-2.448-0.192-4.080-1.008-26.704-5.008-57.936-22-79.568-9.712-12.448-23.088-19.536-35.264-29.152-25.36-20.176-39.36-52.32-34.544-84.672 0.4-1.92 0.688-3.824 1.136-5.728zM151.328 401.248c3.552-16.176 11.824-32.256 23.92-43.776 1.712-1.648 2.72-2.352 2.72-2.352s0 0.16 0 0.224c0.032-0.016 0.192-0.144 0.192-0.144-0.192-0.080-0.192 11.168-0.192 13.008 0.096 4.72 0.368 9.44 0.816 14.064 1.92 21.008 7.184 41.632 22.080 57.424 8.176 8.624 18.272 15.168 27.904 22.16 12.272 8.8 22.272 18.72 29.728 31.968 7.632 13.536 12 28.896 12.352 44.336 0.544 22.896-7.632 47.040-22.816 64.32-1.088 1.264-2.080 2.272-2.928 3.184-1.632 1.632-2.64 2.448-2.64 2.448s0-0.208 0-0.256c-0.032 0.016-0.176 0.144-0.176 0.144s0-1.264-0.096-3.536c-0.080-1.072-0.080-2.448-0.176-4.080-1.008-26.704-4.992-57.936-22-79.568-3.888-4.976-8.416-8.976-13.152-12.736-4.128-3.264-8.368-6.384-12.688-9.456-3.168-2.24-6.32-4.512-9.408-6.96-25.36-20.176-39.344-52.32-34.544-84.672 0.368-1.936 0.64-3.84 1.104-5.744zM139.328 138.464c0 29.056 49.808 55.68 104 76.576 6 2.352 2.448 8.992-4.096 7.712-101.056-20.256-165.232-50.496-165.232-84.304 0-33.776 64.176-64.032 165.232-84.304 6.56-1.344 10.192 5.36 4.192 7.712-54.288 20.944-104.096 47.552-104.096 76.608zM820.128 139.392c0 25.616-41.568 48.592-107.072 64.128v87.28c0 36.16-29.28 65.408-65.44 65.408h-74.080c-12.64 0-22 11.984-18.64 24.24 5.712 20.816 22.080 32.816 37.008 46.88 14.080 13.36 22.192 28.976 31.008 46.064 4.256 8.256 10.432 12.064 16.528 18.624 6.624 7.184 12.544 15.072 17.264 23.616 9.824 17.632 15.072 37.696 15.072 57.856 0 22.256-6.080 43.056-16.704 60.848 0.096 11.184-1.088 34.256-10.368 58.768-10.352 27.424-33.264 61.968-83.152 76.48-21.552 21.536-51.36 34.8-84.080 34.8-65.712 0-119.248-53.424-119.248-119.184 0-8.176 0.832-16.064 2.368-23.792-6.096-17.904-8.912-36.784-8.288-56.592 1.008-32.512 11.184-64.128 25.92-92.928 7.008-13.632 9.456-28.080 15.552-42.24 7.36-17.168 18-32.976 32-45.408 14.080-12.448 28.896-24.912 34.176-43.872 3.36-12.176-5.904-24.256-18.624-24.256h-64.992c-36.176 0-65.44-29.248-65.44-65.392v-87.296c-65.536-15.536-107.072-38.512-107.072-64.144 0-26.784 45.28-50.592 115.792-66.128 3.088-0.624 4.448 3.648 1.552 4.928-39.264 16.336-63.088 37.776-63.088 61.312 0 21.344 19.728 41.040 52.816 56.672v-56.672c0-25.168 89.984-45.616 201.056-45.616 111.088 0 201.056 20.432 201.056 45.616v56.768c33.088-15.712 52.816-35.328 52.816-56.672 0-23.536-23.808-44.976-63.072-61.312-2.912-1.2-1.552-5.568 1.552-4.928 70.656 15.536 115.824 39.344 115.824 66.144zM648.976 573.456c0-21.424-7.008-41.248-18.912-57.312v0.080c0.096 41.696-20.64 78.48-52.448 100.736h61.008c6.608-13.072 10.352-27.888 10.352-43.504zM477.44 781.648c12.352 0 24.272-2.352 35.168-6.64-24.528-1.648-50.256-9.36-73.248-22.064-22.72-12.624-42-29.424-56.64-49.328 8.656 44.432 47.824 78.032 94.72 78.032zM461.536 630.976c-6.352-2.464-12.176-5.376-17.536-8.64-8.096-4.912-15.088-10.72-21.088-16.8-0.912-0.912-1.728-1.824-2.64-2.72-1.728-1.92-3.456-3.92-5.008-5.824-2.352-2.976-4.64-6.064-6.64-9.168-3.536-5.44-6.64-10.912-9.168-16.256-4.736-9.984-8.096-19.904-10.464-28.88-0.352 0.912-0.72 1.824-1.088 2.72-11.728 30.16-14.544 56.048-12.448 78.112 0.64 6.544 1.728 12.704 3.088 18.528 1.536 6.448 3.456 12.448 5.728 17.984 2.624 6.544 5.536 12.544 8.72 17.904 13.104 22.528 33.008 41.6 57.36 55.136 22.72 12.624 48.352 19.52 72 19.52 7.44 0 14.72-0.72 21.536-2.096 1.904-0.368 3.824-0.816 5.648-1.28 6.72-1.632 13.088-3.712 18.992-6.272 6.544-2.72 12.544-6 18.096-9.808 16.624-11.344 28.912-27.344 36.816-47.872 2.736-7.168 4.64-14.256 6-20.896 1.36-6.624 2.192-12.8 2.544-18.064 0.192-2.544 0.368-4.816 0.368-6.912h-122.064c-11.2 0-21.28-1.072-30.56-3.088-6.56-1.344-12.544-3.168-18.192-5.328zM527.168 429.856c-2.544-5.632-10.176-9.712-19.344-9.712-9.184 0-16.816 4.096-19.36 9.712-0.912 2 1.264 4 4.272 4h30c3.264-0.096 5.344-2.096 4.432-4zM522.896 445.568h-30c-3.008 0-5.168 2-4.272 4 2.080 4.72 6 8.368 12.992 9.44 0.816 0.096 1.744 0 2.544-0.352l1.904-0.912c1.184-0.56 2.64-0.56 3.824 0l1.904 0.912c0.816 0.352 1.648 0.544 2.56 0.352 6.992-0.992 10.912-4.72 12.992-9.44 0.736-1.984-1.344-4-4.448-4zM784.752 222.768c-6.528 1.264-10.080-5.44-4.080-7.712 54.256-20.896 104.064-47.616 104.064-76.576s-49.888-55.664-104.064-76.576c-6-2.352-2.448-8.992 4.080-7.712 101.088 20.272 165.248 50.512 165.248 84.304 0 33.776-64.16 64.016-165.248 84.272z" />
<glyph unicode="&#xe922;" glyph-name="uniE922" data-tags="uniE922" d="M487.136 341.904l35.984 107.968-107.984-35.968 25.2-25.232-190.768-190.752h-122.384v-36.016h86.384l-36-35.968h-122.368v-36h86.384l-50.384-50.384 25.2-25.216 46.784 46.8v-79.184h36v115.2l36 35.968v-79.184h36v115.2l194.368 194.368 21.584-21.6zM595.104 449.872c0 39.616-32.384 72-71.984 72s-68.384-28.784-71.984-68.384l107.984 32.384-32.384-108c39.6 3.632 68.368 32.416 68.368 72zM523.12 845.824c-219.568 0-395.952-176.368-395.952-395.952 0-79.2 25.2-154.752 64.8-215.952h39.6l79.184 79.184c-25.2 39.6-39.6 86.352-39.6 136.752 0 140.384 111.584 251.984 251.968 251.984s251.968-111.584 251.968-251.984c0-140.384-111.6-251.952-251.968-251.952-50.384 0-97.184 14.368-136.768 39.6l-79.2-79.184v-39.6c61.2-39.6 136.784-64.816 215.968-64.816 219.568 0 395.952 176.368 395.952 395.952 0 219.6-176.384 395.968-395.952 395.968zM519.536 341.904l-14.4-57.6-32.4 32.384-57.6-54.016c32.4-17.968 68.384-28.768 107.984-28.768 118.8 0 215.968 97.152 215.968 215.952s-97.168 215.984-215.968 215.984c-118.784 0-215.968-97.184-215.968-215.984 0-39.584 10.8-79.2 28.8-111.584l54 54.016-36 32.384 57.6 18v3.6c0 61.184 46.784 107.984 107.984 107.984 61.184 0 107.984-46.8 107.984-107.984s-46.8-108-107.984-108c3.584 3.632 0 3.632 0 3.632z" />
<glyph unicode="&#xe923;" glyph-name="uniE923" data-tags="uniE923" d="M880.368 503.6h79.12c-11.84 100-56.528 192.544-128.848 264.848s-164.832 116.992-264.832 128.848v-79.12c162.288-23.648 290.944-152.304 314.56-314.576zM458 818.16v79.136c-100-11.84-192.528-56.544-264.848-128.848s-116.992-164.848-128.832-264.848h79.12c23.616 162.272 152.272 290.928 314.56 314.56zM565.808 81.216v-79.12c100 11.84 192.528 56.528 264.848 128.848s117.008 164.848 128.848 264.864h-79.12c-23.632-162.288-152.288-290.944-314.576-314.592zM143.44 395.792h-79.12c11.84-100.016 56.528-192.544 128.848-264.864s164.848-117.008 264.848-128.848v79.12c-162.304 23.664-290.96 152.32-314.576 314.592zM313.28 503.6c19.088 70.224 74.496 125.648 144.72 144.72v80.416c-113.536-21.904-203.248-111.6-225.12-225.136h80.4zM313.28 395.792h-80.4c21.872-113.552 111.6-203.248 225.12-225.136v80.416c-70.224 19.088-125.632 74.496-144.72 144.72zM710.528 395.792c-19.088-70.24-74.496-125.648-144.72-144.72v-80.416c113.568 21.888 203.248 111.6 225.12 225.136h-80.4zM710.528 503.6h80.4c-21.872 113.552-111.568 203.248-225.12 225.136v-80.416c70.224-19.088 125.632-74.512 144.72-144.72zM533.776 555.184v342.112h-43.712v-342.096c-41.904-8.672-74.976-41.744-83.632-83.648h-342.112v-43.696h342.128c8.656-41.904 41.712-74.976 83.632-83.632v-342.128h43.712v342.128c41.872 8.656 74.944 41.712 83.632 83.632h342.096v43.696h-342.112c-8.688 41.888-41.744 74.96-83.632 83.632z" />
<glyph unicode="&#xe924;" glyph-name="uniE924" data-tags="uniE924" d="M439.168 616.944c60.48 0 109.552 48.368 109.552 108.032s-49.056 108.016-109.552 108.016c-60.512 0-109.568-48.352-109.568-108.016s49.072-108.032 109.568-108.032zM869.44 148.192h-82.16l-175.312 149.744c-16.72 14.256-39.904 18-60.256 9.936-0.16 0.128-66.352-29.376-66.352-29.376-47.536 30.88-110.032 88.848-119.616 183.744 1.008 1.072 2.032 2.16 3.072 3.216 35.216 35.952 34.576 93.6-1.392 128.784-35.984 35.168-93.68 34.544-128.896-1.392-112.208-114.56-164.736-305.376-133.84-486.112 7.584-44.368 46.128-75.728 89.728-75.728 1.872 0 675.072 0.928 675.072 0.928 32.352 0.048 58.544 25.968 58.512 58.304 0 32.288-26.24 57.952-58.56 57.952zM480.944 148.016l24.848 10.72c-11.648 2.032-23.056 7.968-26.080 9.472-2.272 1.104-45.92 22.8-91.088 66.592l-109.536-49.488c-3.232 60.336 6.16 121.568 25.872 174.72-12.416 33.344-20.032 71.856-18.624 115.312 3.232-97.952 49.168-166.96 93.216-210.96 61.328-61.264 131.168-86.704 134.112-87.744 4.336-1.568 8.8-2.304 13.152-2.304 9.488 0 19.44 1.968 27.152 6.896-0.064-0.112 6.544 4.464 6.544 4.464l44.352-37.616-123.92-0.064z" />
<glyph unicode="&#xe925;" glyph-name="uniE925" data-tags="uniE925" d="M504.576 680.672c41.488 0 75.072 33.632 75.072 75.104 0 41.488-33.6 75.12-75.072 75.12-41.44 0-75.072-33.632-75.072-75.12 0-41.456 33.632-75.104 75.072-75.104zM710.144 856.592l-1.104 0.464-0.128 0.032-13.792 5.808c-15.776 6.64-23.008-6.32-25.2-11.552l-36.128-93.072c-0.256-0.688-9.872-24.32-25.088-41.424l-48.448-54.416c-0.032-0.016-0.032-0.016-0.032-0.048-12.624-14.192-27.648-15.92-33.136-16.048h-70.528c-16.544 0-25.248 7.568-28.272 10.832-14.336 17.424-32.592 51.808-42.928 72.32-7.44 14.432-2.704 25.008-0.736 28.368l50.72 82.224c0 0 0 0 0 0.016 11.504 18.64-4.96 27.904-4.96 27.904l-13.424 8.432c-0.016 0-0.016 0-0.048 0-15.136 9.456-25.872-10-25.872-10l-64.048-110.88c-2.48-4.512-10.896-22.624 0.64-44.16l146.192-273.136c1.36-2.56 8.016-16.528-0.288-25.568l-91.296-99.648c0 0-0.080-0.080-0.080-0.128l-4.048-4.4c-6.448-7.632-19.152-25.664-27.456-57.408l-51.616-197.104c-1.568-6.384-5.648-28.672 14.048-28.672h35.312c5.36 0.176 21.312 2.592 28.88 26.608v0.016l39.984 153.968c0 0.032 0 0.032 0.016 0.096 7.184 27.616 21.872 43.504 27.36 48.688 0.608 0.56 1.36 1.264 1.968 1.856 0.096 0.048 0.336 0.24 0.336 0.24v0.048c16.912 15.504 45.984 43.424 93.28 91.744v-0.048c0 0 11.488 12.048 10.688 0.080-5.968-95.408-44.064-246.56-58.672-301.952-1.552-7.504-2.16-21.312 14.352-21.312h37.552c6.176 0.48 19.456 4.192 25.024 26.192 18.352 72.16 68.928 271.472 79.056 315.44 4.496 19.328 6.016 35.312 6.272 48.064-0.608 23.6-11.936 51.84-11.936 51.84v0.032l-9.488 19.040-41.28 77.232c-11.648 21.776-3.616 35.28-0.864 38.96l0.752 0.992c0.048 0 0.144 0.112 0.144 0.112l71.712 92.464c16.224 20.912 25.648 45.376 25.696 45.472l29.968 79.12c9.744 25.728-4.752 34.336-9.056 36.272z" />
<glyph unicode="&#xe926;" glyph-name="uniE926" data-tags="uniE926" d="M873.488 256.272c-33.008 29.312-77.008 43.968-124.704 43.968-44.016 0-88.016-21.984-121.024-40.32-29.344-14.656-77.024-32.992-121.024-32.992-132.048 0-238.4 106.288-238.4 238.224s106.352 238.224 238.4 238.224c44 0 77.008-10.992 121.024-32.992s77.008-40.32 121.024-40.32c47.68 0 91.696 14.656 124.704 43.984 11.008 7.328 18.336 14.656 25.664 25.664 0 3.664-7.328 10.992-11.008 14.656-80.672 124.608-220.048 208.896-381.424 208.896-253.072 0-458.48-205.232-458.48-458.112s205.408-458.112 458.48-458.112c168.72 0 315.424 91.632 392.432 223.568-7.328 11.008-18.32 18.32-25.664 25.664zM932.176 641.072c-2.896 8.704-10.32 21.856-11.472 25.184-7.344-7.328-18.096-18-28.88-25.184-40.336-29.328-88.032-47.648-143.040-47.648s-113.696 32.992-150.368 51.312c-29.344 14.656-55.008 22-91.68 22-110.048 0-201.728-91.632-201.728-201.568 0-109.952 91.68-201.584 201.728-201.584 36.672 0 77.008 14.672 91.68 22 36.672 18.336 95.36 51.312 150.368 51.312 51.36 0 102.704-18.336 143.040-47.664 11.008-7.312 18.336-14.656 29.344-25.664 29.344 58.656 47.68 128.288 47.68 201.584-3.664 62.304-14.656 120.944-36.672 175.92zM920.704 666.256c0.144 0.144 0.336 0.336 0.464 0.464-0.768 0.768-0.784 0.4-0.464-0.464z" />
<glyph unicode="&#xe927;" glyph-name="uniE927" data-tags="uniE927" d="M782.704 782.048c-11.792 17.008-35.12 21.184-52.128 9.392l-221.088-153.728c-60.016-34.88-207.424-50.304-207.424-50.304l10.032 32.912c2.832 12.976-3.184 26.8-15.52 33.264-14.8 7.76-33.072 2.048-40.832-12.768l-38.8-74.096c-3.056-5.904-4.688-12.816-4.256-19.952 1.296-20.912 19.28-36.816 40.16-35.504l154.256 9.52 63.296-222.832-67.696-118.256-149.312-74.256c-20.704-10.336-30.496-35.152-21.696-57.024 9.264-23.040 35.44-34.224 58.464-24.976l171.344 68.928c8.544 3.44 16.144 9.472 21.504 17.84l104.816 167.040 61.728-76.432 31.104-166.624c4.32-22.768 25.472-38.944 48.928-36.448 24.672 2.624 42.544 24.768 39.936 49.472l-19.488 183.744c-0.8 7.36-3.472 14.832-8.096 21.264l-70.688 98.544-68.432 241.072 172.672 139.68c15.056 12.256 18.464 34.32 7.216 50.528zM458.384 633.392c56.672-0.96 103.36 44.24 104.304 100.928 0.976 56.672-44.192 103.392-100.848 104.352-56.656 0.944-103.344-44.24-104.288-100.928-0.96-56.688 44.176-103.408 100.832-104.352zM352.496 600.16c20.608 0 37.296 16.704 37.296 37.312 0 20.624-16.688 37.328-37.296 37.328-20.592 0-37.296-16.704-37.296-37.328 0-20.608 16.704-37.312 37.296-37.312z" />
<glyph unicode="&#xe928;" glyph-name="uniE928" data-tags="uniE928" d="M345.728 462.016c53.168 0 96.272 43.104 96.272 96.304 0 53.168-43.104 96.304-96.272 96.304s-96.272-43.12-96.272-96.304c0-53.2 43.12-96.304 96.272-96.304zM906.544 358.752c-3.728 2.88-92.32 70.736-157.584 100.832l-214.064 98.768v120.72c38.128 15.184 65.088 52.336 65.088 95.904 0 57.024-46.208 103.248-103.2 103.248-57.008 0-103.216-46.224-103.216-103.248 0-45.072 28.896-83.28 69.136-97.392v-141.008c-5.92-11.088-22.688-45.104-22-74-0.224-19.504 11.44-38 30.704-45.456l200.224-77.584c12.8-4.96 27.040-4.208 39.248 2.016 2.592 1.312 5.008 2.864 7.296 4.576l110.912-52.432v-223.904c0-26.592 21.536-48.144 48.128-48.144 26.56 0 48.128 21.552 48.128 48.144v250.768c0 14.96-6.944 29.088-18.8 38.192zM496.8 737.248c-20.816 0-37.696 16.896-37.696 37.712 0 20.832 16.896 37.712 37.696 37.712 20.816 0 37.696-16.88 37.696-37.712 0-20.816-16.88-37.712-37.696-37.712zM783.152 281.728l-598.864 157.216v380.848c0 27.328-22.144 49.488-49.488 49.488-27.328 0-49.472-22.144-49.472-49.488v-745.008c0-27.328 22.144-49.488 49.472-49.488s49.488 22.16 49.488 49.488v261.84l434.528-114.080v-147.744c0-27.328 22.16-49.488 49.472-49.488 27.344 0 49.488 22.16 49.488 49.488v121.76l40.272-10.56c26.432-6.944 53.488 8.864 60.416 35.296 6.944 26.448-8.848 53.504-35.312 60.432z" />
<glyph unicode="&#xe929;" glyph-name="uniE929" data-tags="uniE929" d="M905.248 622.784c-133.328-34.336-259.568-99.232-365.056-187.696l-11.040-9.248-35.2-46.928c-75.024-99.984-128.32-212.208-158.432-333.536l-4.832-19.488c-5.952-23.984-27.456-40.032-51.12-40.032-4.192 0-8.464 0.512-12.72 1.568-28.256 7.008-45.472 35.616-38.464 63.84l4.832 19.488c33.52 135.104 92.88 260.064 176.432 371.408l7.584 10.128c-1.84 1.776-3.632 3.616-5.328 5.616l-109.312 127.52c-49.824-61.36-86.672-126.544-109.808-194.592l-5.936-17.44c-7.456-21.92-27.952-35.728-49.888-35.728-5.632 0-11.36 0.912-16.992 2.832-27.552 9.376-42.288 39.312-32.912 66.88l5.936 17.408c36.272 106.592 100.32 206.304 190.368 296.352 0.272 0.304 0.608 0.528 0.896 0.8 1.76 1.808 3.6 3.536 5.664 5.104l65.168 49.536c0.864 0.672 1.744 1.296 2.672 1.904 41.008 27.328 91.84 35.776 139.488 23.12 47.632-12.656 87.6-45.2 109.648-89.28 13.008-26.032 2.464-57.696-23.568-70.704s-57.696-2.448-70.704 23.568c-8.656 17.328-23.712 29.6-42.432 34.544-17.616 4.688-35.632 2.064-51.12-7.216l112.208-130.912c104.368 75.28 223.264 131.248 347.68 163.28 28.16 7.264 56.928-9.696 64.192-37.904 7.248-28.192-9.712-56.928-37.904-64.192zM190.944 723.52c50.048 0 90.608 40.56 90.608 90.592 0 50.048-40.56 90.608-90.608 90.608-50.032 0-90.608-40.56-90.608-90.608 0-50.032 40.576-90.592 90.608-90.592z" />
<glyph unicode="&#xe92a;" glyph-name="uniE92A" data-tags="uniE92A" d="M512 748.032c-51.728 0-93.664-41.984-93.664-93.776s41.92-93.776 93.664-93.776c51.712 0 93.648 41.984 93.648 93.776s-41.936 93.776-93.648 93.776zM911.488 845.488c-7.472 0-14.112-3.456-18.448-8.848v15.808c0 13.104-10.592 23.728-23.68 23.728-9.584 0-17.808-5.68-21.552-13.872v11.248c0 13.104-10.608 23.728-23.68 23.728-13.088 0-23.696-10.624-23.696-23.728v-74.064h-87.376c-5.648 12.784-18.912 21.12-33.568 19.632-12.208-1.28-22.016-9.136-26.656-19.632h-281.664c-4.624 10.496-14.448 18.336-26.656 19.632-14.656 1.488-27.904-6.832-33.552-19.632h-87.376v74.064c0 13.104-10.624 23.728-23.696 23.728-13.088 0-23.68-10.624-23.68-23.728v-11.248c-3.744 8.176-11.984 13.872-21.552 13.872-13.088 0-23.696-10.624-23.696-23.728v-15.808c-4.352 5.392-10.992 8.848-18.448 8.848-13.088 0-23.696-10.624-23.696-23.728v-91.984c0-13.104 10.608-23.728 23.696-23.728 7.456 0 14.096 3.456 18.432 8.848v-15.824c0-13.104 10.608-23.728 23.696-23.728 9.568 0 17.792 5.696 21.552 13.872v-11.248c0-13.104 10.592-23.728 23.68-23.728 13.072 0 23.696 10.624 23.696 23.728v74.048h81.664c-3.232-59.36-2.544-164.048 37.152-207.632 29.984-32.912 62.592-51.824 84.336-61.84v-167.92c-47.68-13.248-84.48-39.536-116.048-81.664-42.576-56.864-43.872-168.64-43.696-190.48 0.192-24.256 19.888-43.776 44.048-43.776 0.128 0 0.256 0 0.368 0 24.336 0.192 43.904 20.112 43.712 44.48-0.336 40.704 7.728 112.336 26.064 136.832 26.16 34.912 57.216 56.576 130.768 56.8 73.584-0.224 104.624-21.888 130.784-56.8 18.336-24.48 26.384-96.128 26.064-136.832-0.192-24.368 19.376-44.304 43.712-44.48 0.128 0 0.256 0 0.352 0 24.192 0 43.872 19.536 44.064 43.776 0.176 21.84-1.12 133.632-43.696 190.48-31.552 42.144-68.352 68.416-116.048 81.664v167.952c21.744 10.016 54.352 28.944 84.336 61.84 39.696 43.584 40.384 148.272 37.152 207.632h81.68v-74.064c0-13.104 10.592-23.728 23.68-23.728s23.696 10.624 23.696 23.728v11.248c3.728-8.176 11.968-13.872 21.536-13.872 13.088 0 23.696 10.624 23.696 23.728v15.808c4.336-5.392 10.992-8.848 18.432-8.848 13.088 0 23.696 10.624 23.696 23.728v91.984c0.096 13.104-10.512 23.728-23.584 23.728zM632.736 589.024c-20.704-22.736-55.184-43.088-58.608-44.192s-23.68 5.12-62.128 5.12c-38.448 0-56.016-5.584-62.144-5.12-6.112 0.464-37.888 21.456-58.608 44.192-18.064 19.84-23.728 94.384-19.776 163.008h281.040c3.968-68.624-1.696-143.168-19.776-163.008z" />
<glyph unicode="&#xe92b;" glyph-name="uniE92B" data-tags="uniE92B" d="M851.184 490.352l-190.4 42.864c0.256 2.064 0.4 4.096 0.496 6.128l162.224 184.096c14.464 16.48 13.968 41.68-1.712 57.456-16.368 16.464-43.024 16.544-59.472 0.16l-154-153.2-84.544 42.192 46.32 43.056c7.472 7.008 11.952 17.136 11.44 28.176l-5.952 126.976c-0.912 18.352-15.984 33.184-34.608 33.392-19.344 0.224-35.2-15.296-35.44-34.64l-1.216-108.208c0 0-41.616-25.056-77.472-68.736-49.248-60-66.96-96.4-75.2-127.344-8.224-30.944-48.848-183.568-48.848-183.568-1.408-5.392-1.488-10.864-0.416-16.048-12.576-7.488-21.008-21.216-21.008-36.88v-14.784h-61.328c-41.904 0-75.856-33.968-75.856-75.856 0-41.904 33.952-75.856 75.856-75.856h114.944l-76.528-171.952c-4.544-10.208 0.032-22.16 10.256-26.704 2.672-1.184 5.456-1.76 8.208-1.76 7.76 0 15.136 4.464 18.496 12.016l83.856 188.4h234.096l83.872-188.4c3.344-7.552 10.72-12.016 18.464-12.016 2.752 0 5.568 0.576 8.224 1.76 10.224 4.544 14.816 16.496 10.256 26.704l-76.496 171.952h109.68c41.872 0 75.84 33.952 75.84 75.856 0 41.888-33.968 75.856-75.84 75.856h-61.312v14.8c0 23.664-19.248 42.896-42.912 42.896-23.68 0-42.944-19.232-42.944-42.896v-14.784h-253.008v14.784c0 7.2-1.808 14.016-4.976 20 3.36 3.6 6.048 7.92 7.696 12.912l51.2 154.848 106.112-52.992c12.784-6.368 26.352-9.488 39.728-9.712l268.288-43.456c21.712-3.472 42.848 10.496 47.744 32.272 5.104 22.64-9.152 45.168-31.808 50.24zM634.32 326.224c0 15.888 12.912 28.848 28.848 28.848 15.904 0 28.848-12.96 28.848-28.848v-14.784h-57.68v14.784zM353.136 311.44h-57.696v14.784c0 9.872 4.992 18.624 12.592 23.808 4.192-5.968 10.208-10.72 17.632-13.152 8.496-2.816 17.312-2.16 24.928 1.136 1.632-3.6 2.56-7.584 2.56-11.792v-14.784zM265.024 616.56c9.328-6.272 19.888-10.624 30.896-12.768l0.112-0.016c27.312-5.312 56.032 3.488 75.728 23.136 19.968 19.952 28.752 49.424 22.928 77.056-5.68 26.896-24.704 49.936-50.096 60.512-25.984 10.8-56.288 7.808-79.616-7.92-23.344-15.728-37.504-42.688-37.248-70.848 0.288-27.52 14.496-53.808 37.296-69.152z" />
<glyph unicode="&#xe92c;" glyph-name="uniE92C" data-tags="uniE92C" d="M511.056 615.376c54.336 1.712 97.008 47.2 95.312 101.6-1.728 54.416-47.152 97.12-101.504 95.424s-97.024-47.2-95.312-101.6c1.712-54.4 47.152-97.12 101.504-95.424zM1022.512 781.504c-2.592 3.792-7.792 4.736-11.6 2.128l-194.368-132.816c0 0-42.752 49.712-67.552 32.336-3.328-2.336-4.080-6.96-1.712-10.288l27.664-39.040-13.344-9.488c-8.416 0.784-17.968-1.712-28.080-6.656l-124.8-62.624c0 0-84.816 23.664-156.016 58.112-47.296 22.896-83.28 40.096-145.168 39.552l-56.128-0.080c-5.712-0.464-11.36-2.432-16.336-6.032l-111.712-73.232c-13.472-9.776-18.288-28.176-10.528-43.52 8.592-17.024 29.328-23.84 46.32-15.264l107.056 54.112 58.544-5.824c-1.792-2.752-3.6-5.52-5.408-8.336-38-59.264-63.888-114.096-77.408-163.744-0.976-1.36-1.936-2.752-2.832-4.208l-183.024-299.68c-10.656-17.392-7.088-40.416 9.152-53.664 17.696-14.448 43.744-11.776 58.16 5.92l192.672 236.672 65.968-82.816-37.12-143.728c-5.008-19.392 4.608-40.112 23.552-48.336 20.96-9.136 45.328 0.464 54.448 21.44l72.016 165.552c5.776 13.584 5.248 29.936-3.040 43.472l-4 6.512-59.36 96.752c9.568 41.216 41.696 97.408 74.144 143.712l101.696-24.688c11.744-2.816 24.592-0.864 35.376 6.448l131.664 96.88c10.928 9.184 18.4 17.936 19.264 28.992l12.096 8.592 27.68-39.040c2.352-3.328 6.928-4.048 10.272-1.728 23.312 16.080-8.208 74.464-8.208 74.464l188.080 141.696c3.632 2.656 4.512 7.744 1.92 11.488z" />
<glyph unicode="&#xe92d;" glyph-name="uniE92D" data-tags="uniE92D" d="M961.952 458.656c-0.016 1.104-0.064 2.24-0.096 3.36-0.080 2.432-0.16 4.912-0.288 7.344-0.064 1.264-0.128 2.528-0.192 3.792-0.128 2.352-0.288 4.736-0.448 7.104-0.080 1.184-0.176 2.368-0.272 3.568-0.224 2.848-0.464 5.68-0.752 8.496-0.064 0.656-0.128 1.312-0.192 1.968-0.336 3.456-0.752 6.912-1.184 10.336-0.128 1.008-0.256 2.016-0.384 3.024-0.336 2.448-0.672 4.896-1.024 7.312-0.192 1.248-0.384 2.496-0.576 3.76-0.336 2.224-0.72 4.448-1.104 6.672-0.208 1.232-0.416 2.48-0.656 3.728-0.432 2.4-0.912 4.832-1.392 7.248-0.192 0.976-0.368 1.936-0.56 2.912-0.688 3.312-1.408 6.592-2.16 9.872-0.208 0.912-0.432 1.776-0.64 2.656-0.576 2.432-1.168 4.88-1.76 7.296-0.336 1.248-0.656 2.48-0.992 3.728-0.544 2.080-1.104 4.16-1.68 6.224-0.352 1.28-0.72 2.576-1.072 3.84-0.624 2.128-1.248 4.256-1.904 6.352-0.336 1.136-0.688 2.304-1.024 3.456-1.008 3.136-2 6.272-3.056 9.376-0.224 0.672-0.464 1.344-0.688 2.032-0.88 2.496-1.744 5.008-2.656 7.472-0.432 1.232-0.912 2.448-1.36 3.68-0.72 1.936-1.456 3.856-2.208 5.776-0.496 1.312-1.008 2.624-1.536 3.92-0.752 1.888-1.536 3.744-2.32 5.632-0.496 1.248-1.024 2.496-1.568 3.728-0.944 2.24-1.904 4.448-2.912 6.656-0.368 0.864-0.752 1.728-1.12 2.576-1.312 2.896-2.656 5.776-4.032 8.64-0.576 1.2-1.152 2.384-1.744 3.568-0.88 1.808-1.776 3.616-2.688 5.408-0.656 1.296-1.312 2.576-1.984 3.856-0.896 1.696-1.76 3.392-2.672 5.088-0.688 1.264-1.376 2.544-2.064 3.792-1.008 1.84-2.032 3.648-3.040 5.456-0.608 1.072-1.2 2.16-1.808 3.232-1.584 2.72-3.168 5.44-4.8 8.128-0.672 1.088-1.344 2.176-2.032 3.264-1.056 1.728-2.128 3.456-3.216 5.168-0.784 1.232-1.568 2.464-2.368 3.68-1.008 1.568-2.032 3.136-3.088 4.688-0.816 1.232-1.632 2.448-2.448 3.664-1.104 1.616-2.24 3.232-3.344 4.832-0.768 1.104-1.552 2.208-2.336 3.296-1.808 2.544-3.648 5.056-5.504 7.568v0c-49.152 65.888-115.936 117.84-193.344 148.928v0c-3.088 1.232-6.192 2.432-9.312 3.616-0.224 0.080-0.432 0.176-0.656 0.256-2.96 1.104-5.92 2.176-8.912 3.216-0.384 0.144-0.8 0.288-1.184 0.416-2.848 0.992-5.696 1.936-8.56 2.864-0.56 0.192-1.12 0.368-1.664 0.544-2.736 0.88-5.504 1.728-8.272 2.56-0.704 0.208-1.408 0.416-2.096 0.624-2.656 0.784-5.312 1.536-8 2.272-0.832 0.224-1.664 0.448-2.496 0.672-2.56 0.672-5.12 1.344-7.712 2-0.976 0.24-1.936 0.464-2.912 0.704-2.48 0.592-4.976 1.184-7.456 1.728-1.088 0.24-2.208 0.48-3.296 0.72-2.384 0.512-4.784 1.008-7.184 1.488-1.232 0.24-2.464 0.48-3.68 0.704-2.32 0.448-4.608 0.864-6.928 1.28-1.36 0.24-2.736 0.448-4.096 0.672-2.208 0.368-4.416 0.72-6.64 1.040-1.504 0.224-3.008 0.432-4.496 0.64-2.112 0.304-4.224 0.592-6.336 0.848-1.632 0.208-3.28 0.368-4.944 0.56-2 0.224-4 0.448-6 0.656-1.808 0.176-3.632 0.32-5.44 0.48-1.872 0.16-3.744 0.336-5.632 0.48-2.016 0.16-4.064 0.272-6.096 0.384-1.68 0.096-3.36 0.224-5.040 0.304-2.384 0.112-4.768 0.192-7.152 0.272-1.36 0.048-2.736 0.112-4.112 0.144-3.76 0.096-7.536 0.144-11.344 0.144-3.776 0-7.568-0.048-11.344-0.144-1.36-0.032-2.72-0.096-4.096-0.144-2.368-0.080-4.784-0.16-7.152-0.272-1.68-0.080-3.376-0.208-5.056-0.32-2.032-0.128-4.064-0.24-6.096-0.384-1.872-0.128-3.728-0.304-5.616-0.464-1.808-0.16-3.632-0.304-5.424-0.48-2.032-0.192-4.032-0.432-6.032-0.656-1.648-0.192-3.28-0.352-4.944-0.56-2.112-0.272-4.224-0.56-6.336-0.848-1.504-0.208-3.008-0.4-4.496-0.624-2.224-0.336-4.416-0.688-6.624-1.056-1.376-0.224-2.72-0.432-4.096-0.672-2.32-0.4-4.624-0.832-6.944-1.264-1.216-0.24-2.432-0.464-3.664-0.704-2.4-0.48-4.816-0.992-7.216-1.504-1.088-0.24-2.192-0.464-3.264-0.704-2.496-0.56-5.008-1.136-7.488-1.744-0.96-0.24-1.904-0.464-2.88-0.688-2.592-0.656-5.184-1.328-7.744-2-0.832-0.224-1.664-0.448-2.464-0.672-2.688-0.736-5.376-1.504-8.032-2.288-0.688-0.192-1.36-0.4-2.032-0.608-2.8-0.832-5.568-1.68-8.336-2.576-0.528-0.176-1.056-0.336-1.584-0.512-2.896-0.944-5.776-1.904-8.64-2.896-0.368-0.128-0.752-0.256-1.104-0.384-3.008-1.040-6.016-2.128-9.008-3.248-0.16-0.064-0.336-0.144-0.528-0.208-81.488-30.624-151.76-84.16-202.912-152.832-1.792-2.4-3.568-4.816-5.312-7.264-0.832-1.152-1.632-2.32-2.448-3.488-1.072-1.536-2.16-3.072-3.216-4.64-0.864-1.264-1.696-2.512-2.544-3.776-1.008-1.504-2-3.024-3.008-4.56-0.816-1.264-1.632-2.528-2.448-3.792-1.040-1.664-2.080-3.328-3.104-4.992-0.704-1.136-1.424-2.288-2.112-3.424-1.616-2.672-3.2-5.36-4.768-8.064-0.656-1.12-1.28-2.24-1.904-3.344-1.008-1.776-2-3.552-2.992-5.328-0.704-1.296-1.392-2.576-2.080-3.872-0.896-1.664-1.776-3.328-2.656-5.008-0.672-1.312-1.344-2.608-2.016-3.92-0.896-1.76-1.776-3.552-2.64-5.328-0.608-1.216-1.2-2.416-1.776-3.632-1.36-2.816-2.672-5.664-3.984-8.512-0.416-0.912-0.8-1.824-1.216-2.736-0.976-2.192-1.952-4.384-2.88-6.592-0.544-1.264-1.040-2.512-1.568-3.76-0.768-1.856-1.536-3.728-2.288-5.6-0.528-1.312-1.040-2.624-1.552-3.936-0.736-1.92-1.472-3.84-2.192-5.76-0.464-1.232-0.928-2.464-1.376-3.696-0.896-2.464-1.776-4.976-2.64-7.472-0.24-0.672-0.48-1.344-0.704-2.032-1.040-3.104-2.064-6.256-3.040-9.376-0.352-1.152-0.688-2.304-1.040-3.456-0.64-2.112-1.28-4.224-1.888-6.336-0.368-1.28-0.72-2.56-1.088-3.856-0.576-2.064-1.136-4.16-1.68-6.224-0.336-1.248-0.656-2.48-0.976-3.712-0.624-2.432-1.216-4.88-1.792-7.328-0.208-0.88-0.416-1.744-0.624-2.624-0.752-3.296-1.472-6.576-2.16-9.888-0.208-0.976-0.368-1.936-0.576-2.912-0.48-2.416-0.944-4.848-1.376-7.264-0.224-1.232-0.448-2.48-0.672-3.712-0.384-2.24-0.752-4.448-1.104-6.704-0.192-1.232-0.384-2.48-0.576-3.728-0.368-2.432-0.704-4.88-1.024-7.328-0.128-1.008-0.272-2-0.4-3.008-0.432-3.424-0.832-6.88-1.184-10.336-0.064-0.656-0.128-1.312-0.192-1.968-0.272-2.816-0.528-5.664-0.752-8.496-0.096-1.184-0.176-2.368-0.256-3.568-0.16-2.368-0.32-4.752-0.448-7.12-0.064-1.248-0.128-2.512-0.192-3.776-0.112-2.432-0.208-4.912-0.288-7.344-0.032-1.12-0.080-2.256-0.096-3.376-0.080-3.536-0.128-7.088-0.128-10.656 0-3.184 0.048-6.368 0.112-9.552 0.032-1.424 0.064-2.864 0.112-4.288 0.032-1.232 0.096-2.448 0.144-3.664 3.088-80.88 27.52-156.272 67.824-220.752v0c7.648-12.224 15.84-24.048 24.592-35.44 0.048-0.064 0.096-0.128 0.144-0.192 8.656-11.248 17.808-22.096 27.456-32.464 0.224-0.256 0.448-0.496 0.672-0.736 1.84-1.952 3.68-3.92 5.552-5.84 0.080-0.080 0.16-0.176 0.24-0.24 5.808-6 11.776-11.824 17.904-17.504 0.192-0.176 0.384-0.352 0.592-0.528 1.808-1.68 3.648-3.328 5.488-4.976 0.496-0.448 1.008-0.912 1.52-1.344 1.808-1.6 3.616-3.168 5.44-4.736 0.416-0.352 0.848-0.72 1.28-1.072 5.824-4.944 11.792-9.744 17.856-14.4 0.608-0.448 1.216-0.928 1.824-1.376 1.728-1.328 3.488-2.624 5.232-3.904 0.832-0.608 1.664-1.216 2.496-1.808 1.712-1.248 3.44-2.48 5.184-3.712 0.816-0.56 1.632-1.12 2.448-1.68 5.776-4 11.648-7.872 17.616-11.6 1.008-0.64 2-1.28 3.008-1.888 1.664-1.008 3.328-2.016 4.992-3.008 1.12-0.672 2.256-1.344 3.376-2 1.648-0.976 3.296-1.92 4.944-2.864 1.168-0.672 2.336-1.312 3.52-1.968 5.776-3.2 11.616-6.304 17.536-9.248 1.312-0.656 2.592-1.312 3.904-1.952 1.632-0.784 3.248-1.568 4.896-2.336 1.328-0.64 2.672-1.264 4.032-1.888 1.648-0.752 3.264-1.504 4.896-2.224 1.392-0.624 2.784-1.216 4.176-1.824 1.632-0.704 3.232-1.424 4.88-2.112 0.016 0 0.016 0 0.016 0 53.6-22.528 112.448-34.976 174.224-34.976 60.96 0 119.040 12.128 172.064 34.064v0.016c2.736 1.136 5.44 2.304 8.16 3.472 0.272 0.128 0.528 0.24 0.816 0.352 2.64 1.152 5.28 2.336 7.888 3.568 0.224 0.096 0.448 0.224 0.672 0.32 13.744 6.4 27.136 13.472 40.112 21.184 0.272 0.16 0.544 0.32 0.832 0.48 2.32 1.392 4.624 2.8 6.912 4.224 0.464 0.304 0.96 0.592 1.424 0.896 2.24 1.392 4.448 2.816 6.64 4.256 0.464 0.288 0.912 0.592 1.376 0.896 2.256 1.488 4.512 2.992 6.752 4.512 0.096 0.064 0.192 0.128 0.288 0.192 7.232 4.96 14.336 10.128 21.248 15.488 0.368 0.288 0.72 0.544 1.088 0.832 1.856 1.456 3.712 2.944 5.568 4.416 0.752 0.608 1.504 1.2 2.256 1.792 1.68 1.408 3.392 2.816 5.072 4.224 0.864 0.72 1.696 1.44 2.56 2.176 1.632 1.376 3.232 2.768 4.848 4.176 0.88 0.784 1.76 1.568 2.64 2.336 1.568 1.408 3.136 2.8 4.688 4.224 0.832 0.752 1.632 1.52 2.432 2.272 3.36 3.12 6.656 6.288 9.92 9.488 0.448 0.448 0.928 0.896 1.36 1.344 1.312 1.296 2.592 2.624 3.872 3.92 1.056 1.088 2.128 2.176 3.184 3.28 1.216 1.248 2.4 2.512 3.6 3.792 1.12 1.184 2.24 2.368 3.344 3.584 1.12 1.232 2.256 2.48 3.376 3.728 1.152 1.28 2.304 2.56 3.44 3.856 1.040 1.2 2.112 2.416 3.152 3.648 1.216 1.408 2.4 2.832 3.6 4.256 0.976 1.12 1.904 2.272 2.848 3.408 1.504 1.808 2.976 3.664 4.432 5.504 0.624 0.784 1.248 1.536 1.84 2.32 2.032 2.56 4.016 5.168 5.984 7.776 0.72 0.976 1.424 1.936 2.144 2.912 1.28 1.76 2.592 3.536 3.84 5.296 0.784 1.088 1.568 2.192 2.336 3.296 1.168 1.68 2.336 3.376 3.504 5.072 0.784 1.12 1.536 2.272 2.32 3.392 1.152 1.728 2.288 3.472 3.44 5.216 0.704 1.088 1.424 2.208 2.128 3.312 1.216 1.904 2.4 3.84 3.6 5.776 0.592 0.944 1.184 1.872 1.76 2.832 1.712 2.848 3.424 5.696 5.072 8.592 0.032 0.048 0.064 0.096 0.080 0.144 0.016 0 0.016 0 0.016 0 35.184 61.232 56.368 131.536 59.248 206.528 0.032 1.216 0.096 2.432 0.128 3.664 0.048 1.424 0.096 2.864 0.128 4.288 0.064 3.168 0.112 6.352 0.112 9.552-0.064 3.488-0.112 7.040-0.208 10.592zM530.352 757.344l113.568 82.512c9.76-3.296 19.424-6.96 28.976-10.992 49.216-20.816 93.424-50.624 131.392-88.608 20.72-20.72 38.992-43.312 54.704-67.536l-39.632-125.152-118.144-38.768-170.864 124.128v124.416zM219.696 740.272c37.968 37.984 82.192 67.792 131.408 88.608 9.536 4.032 19.184 7.696 28.944 10.992l113.568-82.512v-124.416l-171.744-124.784-117.040 38.848-39.824 125.744c15.712 24.224 33.984 46.8 54.688 67.52zM291.952 184.112l-112.112 17.744c-19.552 26.32-35.856 54.816-48.72 85.248-21.072 49.808-31.952 102.688-32.416 157.2l94.72 67.76 117.104-38.896 66.336-204.176-84.912-84.88zM690.896 75.216c-5.936-2.848-11.936-5.552-18-8.128-50.944-21.552-105.072-32.464-160.912-32.464-55.808 0-109.936 10.928-160.88 32.464-6.848 2.896-13.584 5.984-20.224 9.216l-12.976 81.808 91.568 91.568h217.888l78.704-78.704-15.168-95.76zM892.896 287.088c-10.544-24.928-23.408-48.544-38.432-70.736l-122.4-19.392-81.744 81.76 63.536 195.536 116.24 38.16 95.232-68.112c-0.48-54.512-11.376-107.376-32.432-157.216z" />
<glyph unicode="&#xe92e;" glyph-name="uniE92E" data-tags="uniE92E" d="M745.12 775.248c12.864 21.408 4.288 51.392-21.408 64.24l-34.272 17.136c-21.408 12.848-51.392 4.288-64.24-21.408l-59.952-119.904 115.632-59.968 64.24 119.904zM415.36 496.88l77.104 149.888-17.136 29.984-115.616-59.952 55.648-119.92zM552.4 676.752l-252.656-501.056h-214.112c-21.408 0-42.816-17.12-42.816-42.832v-42.832c0-25.68 21.408-42.832 42.816-42.832h256.96c25.68 0 51.376 17.136 59.968 38.544l265.488 531.056-115.648 59.952zM338.288 655.344l115.632 59.952-59.952 119.904c-12.848 21.408-38.528 34.256-64.24 21.408l-29.984-17.136c-21.424-12.848-34.272-38.544-21.424-64.24l59.968-119.888zM942.128 175.696h-214.128l-115.648 235.552-77.072-149.904 85.664-175.584c8.576-21.408 38.528-38.544 59.952-38.544h256.96c21.408 0 42.832 17.136 42.832 42.832v42.832c4.272 25.696-17.136 42.816-38.56 42.816z" />
<glyph unicode="&#xe92f;" glyph-name="uniE92F" data-tags="uniE92F" d="M723.76 176.144h-16.784c7.392 10.784 30.56 51.008-2.032 91.248-37.728 46.592-112.816 186.064-77.328 279.456h2.768c12.496 0 21.68 10.112 21.68 22.64v2.832c0 12.496-9.184 22.64-21.68 22.64h-3.472c30.896 29.616 50.176 71.264 50.176 117.424 0 89.872-72.864 162.704-162.736 162.704-89.856 0-162.704-72.848-162.704-162.704 0-46.16 19.264-87.824 50.16-117.424h-6.288c-12.496 0-23.584-10.144-23.584-22.64v-2.832c0-12.512 11.072-22.64 23.584-22.64h5.6c35.488-93.392-39.584-232.864-77.328-279.456-32.608-40.256-9.424-80.464-2.048-91.248h-19.616c-12.496 0-23.584-10.128-23.584-22.64v-50.944c0-12.496 11.072-22.624 23.584-22.624h1.888v-45.296h418.8v45.296c14.16 0 22.624 10.128 22.624 22.624v50.944c0.016 12.512-9.152 22.64-21.68 22.64z" />
<glyph unicode="&#xe930;" glyph-name="UpperBody" data-tags="UpperBody" d="M953.312 607.456h-122.56l33.472 23.808c15.408 10.976 19.008 32.368 8.048 47.792s-32.336 19.024-47.76 8.048l-116.464-82.896c-8.8-6.256-14.112-16.272-14.384-27.056-0.288-10.784 4.544-21.056 12.992-27.744l116.48-92.16c6.304-4.992 13.776-7.376 21.216-7.376 10.112 0 20.128 4.432 26.896 13.008 11.728 14.848 9.216 36.4-5.632 48.144l-35.216 27.872h122.928c18.928 0 34.272 15.344 34.272 34.288-0.032 18.912-15.36 34.272-34.288 34.272zM333.008 569.056c0.272 10.784-4.544 21.056-13.008 27.744l-116.48 92.16c-14.832 11.728-36.368 9.216-48.112-5.632-11.728-14.848-9.2-36.4 5.632-48.128l35.232-27.872h-126.144c-18.912 0-34.256-15.344-34.256-34.288 0-18.928 15.328-34.256 34.256-34.256h125.776l-33.472-23.824c-15.408-10.976-19.008-32.368-8.048-47.808 6.672-9.392 17.232-14.4 27.952-14.4 6.864 0 13.792 2.064 19.824 6.336l116.48 82.896c8.752 6.272 14.080 16.288 14.368 27.072zM269.568 306.144c-0.016-1.008-0.048-2-0.064-3.024-1.968-117.456 26.704-196.352 77.376-247.056h142.928c0.272 29.424 0.704 92.128-0.16 123.984-1.328 47.216-145.488 101.264-220.080 126.096zM657.344 531.584c-32.928 82.4 5.328 247.056-4.464 247.056h-280.656c-9.808 0 28.448-164.656-4.496-247.056-36.912-92.336-82.368-108.048-94.928-187.664 85.328-15.744 167.488-20.832 239.728-20.368 72.256-0.448 154.416 4.624 239.744 20.368-12.56 79.616-57.984 95.328-94.928 187.664zM535.472 180.032c-0.896-31.856-0.448-94.56-0.176-123.984h142.928c50.672 50.704 79.328 129.616 77.376 247.056-0.032 1.024-0.064 2.032-0.096 3.024-74.576-24.816-218.736-78.864-220.032-126.096z" />
<glyph unicode="&#xe931;" glyph-name="social-ok" data-tags="social-ok" d="M512.482 535.661c48.89 0.178 87.828 39.451 87.65 88.446-0.178 49.016-39.2 88.017-88.111 88.059-49.32 0.052-88.708-39.671-88.331-89.127 0.367-48.817 39.745-87.556 88.792-87.378zM512 960c-282.771 0-512-229.24-512-512s229.229-512 512-512 512 229.24 512 512-229.229 512-512 512zM512.733 804.3c99.729-0.272 179.774-81.847 179.26-182.675-0.503-98.503-81.857-178.338-181.418-178.003-98.545 0.335-179.365 82.035-178.778 180.737 0.555 99.781 81.417 180.214 180.936 179.941zM714.726 372.763c-22.051-22.638-48.597-39.022-78.075-50.451-27.865-10.8-58.402-16.237-88.635-19.862 4.578-4.965 6.725-7.406 9.575-10.256 41.023-41.243 82.245-82.276 123.131-123.634 13.933-14.1 16.834-31.574 9.166-47.947-8.37-17.913-27.153-29.688-45.58-28.421-11.67 0.807-20.773 6.6-28.85 14.739-30.966 31.155-62.519 61.754-92.836 93.496-8.852 9.24-13.084 7.48-20.889-0.545-31.144-32.077-62.802-63.64-94.638-95.036-14.299-14.1-31.312-16.656-47.905-8.59-17.631 8.527-28.84 26.535-27.981 44.647 0.608 12.215 6.621 21.58 15.022 29.94 40.614 40.53 81.103 81.187 121.602 121.811 2.692 2.692 5.185 5.552 9.093 9.742-55.238 5.772-105.050 19.37-147.697 52.714-5.301 4.148-10.759 8.15-15.577 12.801-18.678 17.924-20.553 38.467-5.793 59.607 12.644 18.102 33.847 22.942 55.898 12.539 4.274-2.001 8.339-4.536 12.236-7.218 79.469-54.61 188.646-56.108 268.429-2.441 7.899 6.034 16.353 10.999 26.147 13.503 19.024 4.903 36.791-2.106 46.994-18.762 11.68-19.034 11.544-37.597-2.839-52.379z" />
</font>
</defs>
</svg>
